<svg width="400" height="512" viewBox="0 0 400 512" fill="none" xmlns="http://www.w3.org/2000/svg">
<path d="M389.294 13.287L355.134 0.477C355.084 0.459 355.032 0.447 354.982 0.429C354.61 0.297988 354.227 0.196671 353.839 0.126C353.447 0.0543991 353.05 0.0149347 352.651 0.008C352.6 0.007 352.55 0 352.5 0H47.5C47.44 0 47.38 0.008 47.32 0.009C46.6949 0.023166 46.074 0.115894 45.472 0.285C45.3185 0.32843 45.1664 0.376788 45.016 0.43C44.966 0.447 44.916 0.459 44.866 0.477L10.706 13.287C7.5672 14.4757 4.86315 16.5892 2.9515 19.3479C1.03985 22.1066 0.0106412 25.3807 0 28.737V483.263C0.0106412 486.619 1.03985 489.893 2.9515 492.652C4.86315 495.411 7.5672 497.524 10.706 498.713L44.866 511.523C45.1157 511.615 45.37 511.694 45.628 511.759C45.693 511.776 45.758 511.789 45.822 511.803C46.042 511.854 46.262 511.894 46.482 511.925C46.543 511.933 46.604 511.942 46.666 511.949C46.9425 511.982 47.2206 512 47.499 512.002C47.697 512.002 47.891 511.973 48.087 511.957C48.257 511.944 48.429 511.943 48.598 511.918C48.773 511.892 48.94 511.842 49.112 511.804C49.304 511.762 49.497 511.73 49.685 511.672C49.847 511.622 50.001 511.552 50.159 511.492C50.347 511.42 50.538 511.357 50.721 511.27C50.902 511.184 51.071 511.075 51.245 510.974C51.383 510.894 51.527 510.829 51.66 510.74L51.72 510.7L51.73 510.694L94.77 482H300.423L348.642 510.932C348.754 510.999 348.874 511.048 348.989 511.109C349.119 511.179 349.246 511.249 349.379 511.309C349.583 511.403 349.791 511.48 350 511.554C350.124 511.598 350.245 511.648 350.37 511.685C350.616 511.755 350.865 511.813 351.116 511.857C351.215 511.875 351.31 511.904 351.409 511.919C351.751 511.969 352.096 511.995 352.441 511.997C352.461 511.997 352.481 512.002 352.501 512.002C352.776 512 353.05 511.983 353.323 511.951L353.477 511.931C353.736 511.897 353.992 511.849 354.246 511.788C354.294 511.776 354.343 511.768 354.391 511.754C354.642 511.69 354.891 511.612 355.134 511.522L389.294 498.712C392.433 497.523 395.137 495.41 397.048 492.652C398.96 489.893 399.989 486.619 400 483.263V28.738C399.989 25.3817 398.96 22.1076 397.048 19.3489C395.137 16.5902 392.433 14.4767 389.294 13.288V13.287ZM40 493.677L15.974 484.668C15.6886 484.56 15.4427 484.368 15.2688 484.117C15.0949 483.866 15.0012 483.568 15 483.263V28.737C15.0012 28.4318 15.0949 28.1341 15.2688 27.8833C15.4427 27.6324 15.6886 27.4402 15.974 27.332L40 18.322V493.677ZM55 55H87.5V92.74H55V55ZM171.698 248.145L197.695 233.135C199.193 233.621 200.807 233.621 202.305 233.135L228.302 248.145L200 264.485L171.698 248.145ZM192.5 277.475V310.155L164.198 293.815V261.135L192.5 277.475ZM166 178.739C165.602 178.738 165.221 178.58 164.94 178.299C164.659 178.018 164.501 177.637 164.5 177.239V107.739H235.5V177.239C235.499 177.637 235.341 178.018 235.06 178.299C234.779 178.58 234.398 178.738 234 178.739H166ZM235.802 261.135V293.815L207.5 310.155V277.475L235.802 261.135ZM207.5 327.475L247.052 304.64C248.192 303.982 249.139 303.035 249.797 301.894C250.456 300.754 250.802 299.461 250.802 298.144V248.144C250.802 248.122 250.798 248.101 250.797 248.079C250.796 247.772 250.776 247.465 250.737 247.161L250.727 247.109C250.688 246.832 250.632 246.557 250.562 246.286C250.543 246.212 250.522 246.139 250.501 246.066C250.437 245.846 250.362 245.628 250.277 245.412C250.249 245.34 250.223 245.267 250.193 245.196C249.963 244.644 249.663 244.124 249.3 243.649C249.255 243.589 249.206 243.532 249.159 243.473C249.012 243.289 248.859 243.114 248.699 242.947C248.648 242.893 248.597 242.84 248.544 242.788C248.343 242.589 248.13 242.402 247.908 242.228L247.871 242.198C247.626 242.011 247.371 241.84 247.105 241.685C247.087 241.675 247.07 241.66 247.052 241.649L207.5 218.814V193.74H234C238.374 193.735 242.568 191.995 245.661 188.901C248.755 185.808 250.495 181.614 250.5 177.24V107.74H297.5V354H207.5V327.475ZM102.5 92.739V55H297.5V92.74L102.5 92.739ZM149.5 107.739V177.239C149.505 181.613 151.245 185.807 154.339 188.9C157.432 191.994 161.626 193.734 166 193.739H192.5V218.814L152.948 241.649C152.931 241.659 152.916 241.672 152.898 241.683C152.63 241.839 152.372 242.012 152.126 242.2L152.102 242.22C151.875 242.397 151.659 242.588 151.455 242.79C151.403 242.84 151.353 242.893 151.303 242.945C151.142 243.112 150.988 243.289 150.841 243.475C150.794 243.533 150.745 243.589 150.701 243.649C150.337 244.124 150.037 244.644 149.807 245.196C149.777 245.267 149.751 245.34 149.723 245.412C149.638 245.628 149.563 245.846 149.499 246.066C149.479 246.139 149.457 246.212 149.439 246.286C149.368 246.556 149.313 246.83 149.273 247.106C149.271 247.126 149.266 247.143 149.263 247.162C149.224 247.466 149.204 247.772 149.203 248.079C149.203 248.101 149.198 248.123 149.198 248.145V298.145C149.198 299.461 149.545 300.755 150.203 301.895C150.861 303.035 151.808 303.982 152.948 304.64L192.5 327.475V354H102.5V107.74L149.5 107.739ZM318.588 369L338.122 397H61.878L81.412 369H318.588ZM55 107.74H87.5V354H77.5C76.2921 354 75.1022 354.292 74.0313 354.851C72.9604 355.409 72.0402 356.218 71.349 357.209L55 380.642V107.74ZM345 491.254L306.358 468.068C305.193 467.369 303.859 467 302.5 467H92.5C91.0194 467 89.5719 467.439 88.34 468.26L55 490.486V452H345V491.254ZM345 437H55V412H345V437ZM345 380.642L328.651 357.209C327.96 356.218 327.04 355.409 325.969 354.851C324.898 354.292 323.708 354 322.5 354H312.5V107.74H345V380.642ZM345 92.739H312.5V55H345V92.739ZM345 40H55V15H345V40ZM385 483.263C384.999 483.568 384.905 483.866 384.731 484.117C384.557 484.368 384.311 484.56 384.026 484.668L360 493.678V18.322L384.026 27.331C384.311 27.4392 384.557 27.6314 384.731 27.8823C384.905 28.1331 384.999 28.4308 385 28.736V483.263ZM200 135.739C198.517 135.739 197.067 136.179 195.833 137.003C194.6 137.827 193.639 138.998 193.071 140.369C192.503 141.739 192.355 143.247 192.644 144.702C192.933 146.157 193.648 147.493 194.697 148.542C195.746 149.591 197.082 150.306 198.537 150.595C199.992 150.884 201.5 150.736 202.87 150.168C204.241 149.6 205.412 148.639 206.236 147.406C207.06 146.172 207.5 144.722 207.5 143.239C207.5 141.25 206.71 139.342 205.303 137.936C203.897 136.529 201.989 135.739 200 135.739Z" fill="#0C8CE9"/>
</svg>
