<svg xmlns="http://www.w3.org/2000/svg" data-name="Layer 1" viewBox="0 0 512 512"><path d="M445.294 13.287 411.134.477c-.05-.018-.102-.03-.152-.048a7.478 7.478 0 0 0-1.143-.303 7.323 7.323 0 0 0-1.188-.118C408.6.007 408.55 0 408.5 0h-305c-.06 0-.12.008-.18.009a7.458 7.458 0 0 0-1.848.276 7.437 7.437 0 0 0-.456.145c-.05.017-.1.029-.15.047l-34.16 12.81A16.577 16.577 0 0 0 56 28.737v454.526a16.577 16.577 0 0 0 10.706 15.45l34.16 12.81a7.562 7.562 0 0 0 .762.236c.065.017.13.03.194.044q.33.076.66.122c.061.008.122.017.184.024a7.43 7.43 0 0 0 .833.053c.198 0 .392-.029.588-.045.17-.013.342-.014.511-.039.175-.026.342-.076.514-.114.192-.042.385-.074.573-.132.162-.05.316-.12.474-.18.188-.072.379-.135.562-.222.181-.086.35-.195.524-.296.138-.08.282-.145.415-.234l.06-.04.01-.006L150.77 482h205.653l48.219 28.932c.112.067.232.116.347.177.13.07.257.14.39.2.204.094.412.171.621.245.124.044.245.094.37.131a7.413 7.413 0 0 0 .746.172c.099.018.194.047.293.062a7.498 7.498 0 0 0 1.032.078c.02 0 .04.005.06.005a7.45 7.45 0 0 0 .822-.051l.154-.02a7.495 7.495 0 0 0 .769-.143c.048-.012.097-.02.145-.034a7.524 7.524 0 0 0 .743-.232l34.16-12.81A16.577 16.577 0 0 0 456 483.263V28.738a16.577 16.577 0 0 0-10.706-15.45ZM96 493.677l-24.026-9.009a1.509 1.509 0 0 1-.974-1.405V28.737a1.509 1.509 0 0 1 .974-1.405L96 18.322ZM111 55h32.5v37.74H111Zm116.698 193.145 25.997-15.01a7.471 7.471 0 0 0 4.61 0l25.997 15.01L256 264.485Zm20.802 29.33v32.68l-28.302-16.34v-32.68ZM222 178.739a1.502 1.502 0 0 1-1.5-1.5v-69.5h71v69.5a1.502 1.502 0 0 1-1.5 1.5Zm69.802 82.396v32.68l-28.302 16.34v-32.68Zm-28.302 66.34 39.552-22.835a7.5 7.5 0 0 0 3.75-6.496v-50c0-.022-.004-.043-.005-.065a7.43 7.43 0 0 0-.06-.918l-.01-.052a7.423 7.423 0 0 0-.165-.823c-.019-.074-.04-.147-.061-.22q-.096-.33-.224-.654c-.028-.072-.054-.145-.084-.216a6.921 6.921 0 0 0-.893-1.547c-.045-.06-.094-.117-.141-.176q-.22-.276-.46-.526c-.051-.054-.102-.107-.155-.159a7.421 7.421 0 0 0-.636-.56l-.037-.03a7.47 7.47 0 0 0-.766-.513c-.018-.01-.035-.025-.053-.036L263.5 218.814V193.74H290a16.52 16.52 0 0 0 16.5-16.5v-69.5h47V354h-90Zm-105-234.736V55h195v37.74Zm47 15v69.5a16.52 16.52 0 0 0 16.5 16.5h26.5v25.075l-39.552 22.835c-.017.01-.032.023-.05.034a7.448 7.448 0 0 0-.772.517l-.024.02a7.374 7.374 0 0 0-.647.57c-.052.05-.102.103-.152.155q-.242.251-.462.53c-.047.058-.096.114-.14.174a6.916 6.916 0 0 0-.894 1.547c-.03.071-.056.144-.084.216q-.128.324-.224.654c-.02.073-.042.146-.06.22a7.388 7.388 0 0 0-.166.82c-.002.02-.007.037-.01.056a7.469 7.469 0 0 0-.06.917c0 .022-.005.044-.005.066v50a7.5 7.5 0 0 0 3.75 6.495l39.552 22.835V354h-90V107.74ZM374.588 369l19.534 28H117.878l19.534-28ZM111 107.74h32.5V354h-10a7.502 7.502 0 0 0-6.151 3.209L111 380.642Zm290 383.514-38.642-23.186A7.498 7.498 0 0 0 358.5 467h-210a7.502 7.502 0 0 0-4.16 1.26L111 490.486V452h290ZM401 437H111v-25h290Zm0-56.358-16.349-23.433A7.502 7.502 0 0 0 378.5 354h-10V107.74H401Zm0-287.903h-32.5V55H401ZM401 40H111V15h290Zm40 443.263a1.509 1.509 0 0 1-.974 1.405L416 493.678V18.322l24.026 9.009a1.509 1.509 0 0 1 .974 1.405ZM256 135.739a7.5 7.5 0 1 0 7.5 7.5 7.5 7.5 0 0 0-7.5-7.5Z"/></svg>