<svg xmlns="http://www.w3.org/2000/svg" fill-rule="evenodd" stroke-linejoin="round" stroke-miterlimit="2" clip-rule="evenodd" viewBox="0 0 32 32"><path fill-rule="nonzero" d="M24.04 13.996h.479c.022.003.042.013.065.013s.043-.01.065-.013h2.245c.022.003.042.013.065.013s.043-.01.065-.013h.435v.669H24.04v-.669Zm1.036-5.048a.593.593 0 0 0-.02-.102c-.01-.03-.019-.058-.034-.085a.447.447 0 0 0-.051-.077.426.426 0 0 0-.072-.075c-.01-.009-.016-.022-.028-.03l-3.36-2.358c.336-.395.566-.876.649-1.411l4.299 3.055v5.131h-1.375V8.988c0-.014-.007-.026-.008-.04m-7.612-4.577c0-1.031.839-1.871 1.87-1.871 1.031 0 1.87.84 1.87 1.871a1.873 1.873 0 0 1-1.87 1.871c-1.031 0-1.87-.84-1.87-1.871m-6.095 15.985c-.548 0-1.065.126-1.535.339l-2.781-6.918a2.87 2.87 0 0 0 1.606-.554l3.025 7.165c-.106-.009-.207-.032-.315-.032m2.681 3.231H8.689a2.731 2.731 0 0 1 2.68-2.231c1.335 0 2.444.964 2.681 2.231m3.324 2.467v1.678H5.364v-1.525l1.621-1.62h8.922l1.467 1.467ZM19.28 29.5H3.459v-.768H19.28v.768ZM5.063 10.891c0-1.046.851-1.896 1.896-1.896s1.895.85 1.895 1.896c0 1.045-.85 1.895-1.895 1.895a1.898 1.898 0 0 1-1.896-1.895m4.153-1.793 7.3-4.219c.101.564.366 1.07.746 1.469l-7.426 4.361a2.868 2.868 0 0 0-.62-1.611m20.179 7.88-1.333-1.334a.492.492 0 0 0 .397-.479v-1.669a.5.5 0 0 0-.5-.5h-.5V7.607a.497.497 0 0 0-.21-.407l-5.191-3.69a2.865 2.865 0 0 0-2.724-2.01 2.87 2.87 0 0 0-2.784 2.204l-8.132 4.7a2.857 2.857 0 0 0-1.459-.409 2.9 2.9 0 0 0-2.896 2.896c0 1.22.761 2.261 1.831 2.687l3.084 7.669a3.702 3.702 0 0 0-1.289 2.34h-.911a.501.501 0 0 0-.353.146l-1.914 1.914a.5.5 0 0 0-.147.353v1.732H2.959a.5.5 0 0 0-.5.5V30a.5.5 0 0 0 .5.5H19.78c.277 0 .5-.223.5-.5v-1.768a.5.5 0 0 0-.5-.5h-1.406v-1.885a.504.504 0 0 0-.146-.354l-1.76-1.76a.504.504 0 0 0-.354-.146H15.05a3.725 3.725 0 0 0-2.152-2.895l-3.492-8.271c.087-.138.167-.282.23-.435l8.52-5.004c.361.163.757.26 1.178.26.499 0 .962-.14 1.371-.365l3.379 2.371v3.748h-.544a.5.5 0 0 0-.5.5v1.669c0 .228.155.413.364.473l-1.34 1.34a.503.503 0 0 0-.146.353v2.491a.5.5 0 0 0 1 0v-2.284l1.873-1.873h1.878l1.873 1.873v2.284a.5.5 0 0 0 1 0v-2.491a.5.5 0 0 0-.147-.353"/></svg>