<svg width="253" height="217" viewBox="0 0 253 217" fill="none" xmlns="http://www.w3.org/2000/svg">
<path d="M247.455 73.8221L236.137 70.2914V32.5516C236.131 26.562 230.471 21.7073 223.487 21.702H86.6334L84.0176 8.9715C82.8046 3.07121 76.2437 -0.871946 69.3612 0.165727L61.0575 1.41882C54.1749 2.46174 49.5805 8.08882 50.7904 13.9944L52.377 21.702H42.165V18.0846C42.165 8.0967 32.728 0.002852 21.0825 0.002852C9.43705 0.002852 0 8.0967 0 18.0846V198.916C0.0122519 208.896 9.44317 216.984 21.0825 216.995H189.724L189.77 217L189.807 216.995H223.487C230.471 216.992 236.131 212.137 236.137 206.148V121.639L252.497 83.0929C254.074 79.3389 251.82 75.1934 247.455 73.8221ZM21.0825 209.763C14.0989 209.757 8.43851 204.903 8.43239 198.916C8.43239 192.921 14.0958 188.066 21.0825 188.066C28.0692 188.066 33.7326 192.921 33.7326 198.916C33.7326 204.905 28.0692 209.763 21.0825 209.763ZM33.7326 184.541C26.2834 179.594 15.8816 179.594 8.43239 184.541V18.0846C8.43851 12.095 14.0989 7.24029 21.0825 7.23504C28.0661 7.24029 33.7265 12.095 33.7326 18.0846V184.541ZM93.2831 95.7026L76.6756 98.2166L62.7605 30.5393L79.371 28.0305L93.2831 95.7026ZM92.6031 103.153L88.9765 116.411L80.2807 105.013L92.6031 103.153ZM59.7986 10.0381C60.4357 9.24734 61.4189 8.7088 62.5216 8.54592L70.8253 7.28758C71.0704 7.2508 71.3154 7.23504 71.5635 7.23504C73.6065 7.23767 75.3555 8.49864 75.7108 10.2272L77.9069 20.9087L61.2964 23.4227L59.1002 12.7413C58.8981 11.7955 59.1492 10.8209 59.7986 10.0381ZM37.8401 209.763C40.6304 206.652 42.1497 202.838 42.165 198.916V28.9342H53.8625L69.1009 103.037C69.1162 103.113 69.1744 103.182 69.1958 103.261C69.2938 103.634 69.4592 103.988 69.6889 104.317C69.7073 104.338 69.7073 104.366 69.7226 104.388L87.3042 127.434C88.0852 128.456 89.4115 129.071 90.8358 129.068C91.0808 129.071 91.3289 129.05 91.5678 129.011C93.228 128.761 94.5573 127.684 94.9402 126.278L102.276 99.4645V99.4435C102.328 99.1571 102.337 98.8629 102.307 98.5687C102.328 98.3874 102.334 98.2009 102.322 98.0144V98.0091L88.1189 28.9342H223.487C225.815 28.9369 227.702 30.5551 227.702 32.5516V67.6591L227.641 67.6381C205.045 60.5872 180.079 61.7168 158.476 70.7695C136.869 79.8249 120.488 96.0257 113.094 115.647C98.9404 153.085 122.458 194.584 165.631 209.763H37.8401ZM227.702 206.148C227.702 208.142 225.815 209.763 223.487 209.763H198.738L227.705 141.513V206.148H227.702ZM241.688 87.4196H241.685C240.269 86.9756 238.686 87.2147 237.531 88.0448C236.376 88.875 235.825 90.1701 236.088 91.4416C236.349 92.7157 237.384 93.7717 238.802 94.2131V94.2157L235.917 101.012C234.499 100.57 232.915 100.807 231.76 101.637C230.606 102.47 230.057 103.765 230.321 105.036C230.581 106.31 231.617 107.367 233.032 107.808H233.035L230.731 113.235L230.146 113.051C228.731 112.607 227.148 112.849 225.993 113.679C224.838 114.507 224.287 115.805 224.55 117.079C224.814 118.347 225.846 119.406 227.264 119.848L227.846 120.026L224.961 126.828L224.379 126.644C222.189 125.961 219.775 126.933 218.979 128.808C218.182 130.684 219.306 132.757 221.493 133.44L222.078 133.621L219.193 140.42L218.608 140.238C217.193 139.797 215.609 140.036 214.455 140.864C213.3 141.696 212.749 142.994 213.012 144.263C213.275 145.54 214.308 146.593 215.726 147.035L216.308 147.216L213.422 154.017L212.84 153.833C210.65 153.153 208.237 154.12 207.44 155.995C206.644 157.874 207.768 159.946 209.955 160.629L210.54 160.811L207.655 167.609L207.073 167.425C204.886 166.745 202.469 167.714 201.673 169.59C200.88 171.463 202.007 173.541 204.191 174.222L204.769 174.405L201.884 181.204L201.302 181.02C199.887 180.576 198.304 180.818 197.152 181.648C195.994 182.481 195.446 183.773 195.709 185.048C195.97 186.322 197.005 187.375 198.423 187.814L199.002 188L196.117 194.796L195.535 194.613C194.116 194.171 192.536 194.413 191.381 195.243C190.226 196.073 189.675 197.368 189.939 198.642C190.202 199.914 191.237 200.967 192.652 201.409L193.231 201.59L189.764 209.763L171.852 204.17C130.74 191.337 107.979 152.627 121.113 117.88C127.763 100.098 142.579 85.4099 162.139 77.211C181.702 69.0094 204.316 68.0085 224.758 74.4342L244.57 80.6209L241.688 87.4196Z" fill="black"/>
<path d="M249.985 88.0291C217.159 77.7837 180.862 92.298 168.917 120.452C156.971 148.605 173.897 179.733 206.723 189.978C207.774 190.309 208.932 190.265 209.945 189.86C210.962 189.456 211.743 188.72 212.123 187.819L252.505 92.6631C252.888 91.7621 252.839 90.7664 252.365 89.8969C251.893 89.03 251.035 88.3574 249.985 88.0291ZM205.697 181.819C179.588 171.684 166.99 146.007 176.792 122.911C186.593 99.8139 215.486 87.0886 243.084 93.7139L205.697 181.819Z" fill="black"/>
</svg>
