<svg width="50" height="50" viewBox="0 0 50 50" fill="none" xmlns="http://www.w3.org/2000/svg">
<path d="M46.1 14.6H33.3L32 11.5C33.1 10.7 33.9 9.3 33.9 7.8C33.9 5.6 32.4 3.8 30.3 3.3V2C30.3 1.4 29.9 1 29.3 1C28.7 1 28.3 1.4 28.3 2V3.3C26.2 3.8 24.7 5.6 24.7 7.8C24.7 9.3 25.4 10.6 26.6 11.5L25.4 14.6H3.9C2.3 14.6 1 15.9 1 17.5V46C1 47.7 2.3 49 3.9 49H46.1C47.7 49 49 47.7 49 46.1V17.5C49 15.9 47.7 14.6 46.1 14.6ZM29.3 5.2C30.7 5.2 31.9 6.4 31.9 7.8C31.9 9.2 30.7 10.4 29.3 10.4C27.9 10.4 26.7 9.2 26.7 7.8C26.7 6.4 27.8 5.2 29.3 5.2ZM28.3 12.4C28.6 12.5 28.9 12.5 29.2 12.5C29.5 12.5 29.8 12.5 30.1 12.4L32.6 18.6C31.8 18.8 31 18.9 30.2 19V18.3C30.2 17.7 29.8 17.3 29.2 17.3C28.6 17.3 28.2 17.7 28.2 18.3V19C27.4 18.9 26.6 18.8 25.8 18.6C25.9 18.4 28.5 12 28.3 12.4ZM3 17.5C3 17 3.4 16.6 3.9 16.6H12.2V16.9C12.2 22.1 8.1 26.3 3 26.4V17.5V17.5ZM47 46.1C47 46.6 46.6 47 46.1 47H3.9C3.4 47 3 46.6 3 46.1V28.4C9.2 28.2 14.2 23.2 14.2 16.9V16.6H24.4L23.9 17.9C23.7 17.8 23.6 17.8 23.4 17.7C22.9 17.5 22.3 17.7 22.1 18.2C21.9 18.7 22.1 19.3 22.6 19.5C22.8 19.6 23 19.6 23.1 19.7L20.7 25.6C20.5 26.1 20.7 26.7 21.3 26.9C21.8 27.1 22.4 26.9 22.6 26.3L25 20.3C26 20.6 27.1 20.7 28.2 20.8V21.2C28.2 21.8 28.6 22.2 29.2 22.2C29.8 22.2 30.2 21.8 30.2 21.2V20.8C31.3 20.7 32.3 20.6 33.4 20.3L35.8 26.4C36 26.9 36.6 27.2 37.1 27C37.6 26.8 37.9 26.2 37.7 25.7L35.3 19.8C35.5 19.7 35.7 19.7 35.8 19.6C36.3 19.4 36.5 18.8 36.3 18.3C36.1 17.8 35.5 17.6 35 17.8C34.8 17.9 34.7 17.9 34.5 18L34 16.7H46C46.5 16.7 46.9 17.1 46.9 17.6V46.1H47Z" fill="#0C8CE9"/>
<path d="M41.0999 42.2H8.8999C8.2999 42.2 7.8999 42.6 7.8999 43.2C7.8999 43.8 8.2999 44.2 8.8999 44.2H40.9999C41.5999 44.2 41.9999 43.8 41.9999 43.2C41.9999 42.6 41.5999 42.2 41.0999 42.2Z" fill="#0C8CE9"/>
</svg>
