<svg xmlns="http://www.w3.org/2000/svg" enable-background="new 0 0 50 50" viewBox="0 0 50 50"><path d="M46.1,14.6H33.3L32,11.5c1.1-0.8,1.9-2.2,1.9-3.7c0-2.2-1.5-4-3.6-4.5V2c0-0.6-0.4-1-1-1s-1,0.4-1,1v1.3
		c-2.1,0.5-3.6,2.3-3.6,4.5c0,1.5,0.7,2.8,1.9,3.7l-1.2,3.1H3.9c-1.6,0-2.9,1.3-2.9,2.9v28.5C1,47.7,2.3,49,3.9,49h42.2
		c1.6,0,2.9-1.3,2.9-2.9V17.5C49,15.9,47.7,14.6,46.1,14.6z M29.3,5.2c1.4,0,2.6,1.2,2.6,2.6c0,1.4-1.2,2.6-2.6,2.6
		c-1.4,0-2.6-1.2-2.6-2.6C26.7,6.4,27.8,5.2,29.3,5.2z M28.3,12.4c0.3,0.1,0.6,0.1,0.9,0.1c0.3,0,0.6,0,0.9-0.1l2.5,6.2
		c-0.8,0.2-1.6,0.3-2.4,0.4v-0.7c0-0.6-0.4-1-1-1s-1,0.4-1,1v0.7c-0.8-0.1-1.6-0.2-2.4-0.4C25.9,18.4,28.5,12,28.3,12.4z M3,17.5
		c0-0.5,0.4-0.9,0.9-0.9h8.3v0.3c0,5.2-4.1,9.4-9.2,9.5V17.5z M47,46.1c0,0.5-0.4,0.9-0.9,0.9H3.9C3.4,47,3,46.6,3,46.1V28.4
		c6.2-0.2,11.2-5.2,11.2-11.5v-0.3h10.2l-0.5,1.3c-0.2-0.1-0.3-0.1-0.5-0.2c-0.5-0.2-1.1,0-1.3,0.5c-0.2,0.5,0,1.1,0.5,1.3
		c0.2,0.1,0.4,0.1,0.5,0.2l-2.4,5.9c-0.2,0.5,0,1.1,0.6,1.3c0.5,0.2,1.1,0,1.3-0.6l2.4-6c1,0.3,2.1,0.4,3.2,0.5v0.4c0,0.6,0.4,1,1,1
		s1-0.4,1-1v-0.4c1.1-0.1,2.1-0.2,3.2-0.5l2.4,6.1c0.2,0.5,0.8,0.8,1.3,0.6c0.5-0.2,0.8-0.8,0.6-1.3l-2.4-5.9
		c0.2-0.1,0.4-0.1,0.5-0.2c0.5-0.2,0.7-0.8,0.5-1.3c-0.2-0.5-0.8-0.7-1.3-0.5c-0.2,0.1-0.3,0.1-0.5,0.2l-0.5-1.3h12
		c0.5,0,0.9,0.4,0.9,0.9V46.1z"/><path d="M41.1,42.2H8.9c-0.6,0-1,0.4-1,1s0.4,1,1,1h32.1c0.6,0,1-0.4,1-1S41.6,42.2,41.1,42.2z"/></svg>