<svg width="64" height="64" viewBox="0 0 64 64" fill="none" xmlns="http://www.w3.org/2000/svg">
<path d="M57.3898 45.9199C56.3964 44.93 55.1603 44.2186 53.8054 43.8571C52.4504 43.4955 51.0242 43.4965 49.6698 43.8599L37.6098 31.7999L45.9998 23.4399L46.8398 24.2799C46.9327 24.3736 47.0433 24.448 47.1652 24.4988C47.2871 24.5495 47.4178 24.5757 47.5498 24.5757C47.6818 24.5757 47.8125 24.5495 47.9344 24.4988C48.0562 24.448 48.1668 24.3736 48.2598 24.2799L49.6598 22.8799L53.2998 26.6899C53.3904 26.785 53.4988 26.8613 53.6189 26.9145C53.739 26.9677 53.8685 26.9967 53.9998 26.9999C54.1125 27.0003 54.2244 26.9799 54.3298 26.9399C54.5127 26.8767 54.6734 26.7619 54.7923 26.6092C54.9112 26.4566 54.9833 26.2727 54.9998 26.0799V25.5499C55.2042 23.0529 54.8628 20.5412 53.9994 18.1893C53.136 15.8374 51.7712 13.7015 49.9998 11.9299L48.2098 10.1399C48.1168 10.0461 48.0062 9.97175 47.8844 9.92099C47.7625 9.87022 47.6318 9.84408 47.4998 9.84408C47.3678 9.84408 47.2371 9.87022 47.1152 9.92099C46.9933 9.97175 46.8827 10.0461 46.7898 10.1399L45.4098 11.5199C44.692 10.6409 44.3347 9.52221 44.4098 8.38988C44.4783 7.76395 44.3981 7.13069 44.1757 6.54162C43.9532 5.95255 43.5949 5.42431 43.1298 4.99988C42.3364 4.31723 41.3114 3.96474 40.266 4.01497C39.2205 4.0652 38.2341 4.51432 37.5098 5.26988L35.2098 7.57988C33.4198 9.36988 33.2098 11.8499 34.6598 13.4799C35.0833 13.9501 35.6123 14.313 36.2033 14.539C36.7944 14.765 37.4306 14.8476 38.0598 14.7799C39.1768 14.7054 40.2796 15.0635 41.1398 15.7799L40.4598 16.4599C40.366 16.5528 40.2917 16.6634 40.2409 16.7853C40.1901 16.9072 40.164 17.0379 40.164 17.1699C40.164 17.3019 40.1901 17.4326 40.2409 17.5545C40.2917 17.6763 40.366 17.7869 40.4598 17.8799L40.5598 17.9799L32.1998 26.3899L19.9998 14.1699C20.3745 12.7625 20.358 11.2795 19.9519 9.8808C19.5458 8.48212 18.7656 7.22084 17.6954 6.23297C16.6252 5.24509 15.3056 4.56812 13.879 4.27504C12.4523 3.98196 10.9727 4.08391 9.59978 4.56988C9.43989 4.62719 9.29723 4.72428 9.18525 4.852C9.07328 4.97972 8.99568 5.13386 8.95978 5.29988C8.92412 5.46357 8.93015 5.6336 8.97733 5.79435C9.02451 5.9551 9.11131 6.10142 9.22978 6.21988L11.5798 8.56988C11.9551 8.94781 12.1648 9.45935 12.163 9.99195C12.1611 10.5246 11.9477 11.0346 11.5698 11.4099C11.1918 11.7852 10.6803 11.9949 10.1477 11.9931C9.61511 11.9912 9.10506 11.7778 8.72978 11.3999L6.37978 9.04988C6.26059 8.93034 6.11309 8.84291 5.951 8.79575C5.78892 8.74859 5.61753 8.74323 5.45281 8.78016C5.2881 8.8171 5.13541 8.89513 5.00899 9.00699C4.88256 9.11885 4.78651 9.26089 4.72978 9.41988C4.1976 10.8973 4.11201 12.4987 4.48366 14.0244C4.85531 15.5501 5.66777 16.9327 6.81978 17.9999C7.81784 18.9037 9.02451 19.5457 10.3317 19.8686C11.6389 20.1915 13.0057 20.185 14.3098 19.8499L26.5398 31.9999L18.7598 39.7899L18.8298 39.8599C17.9461 39.7745 17.0545 39.8863 16.2193 40.1872C15.384 40.4881 14.626 40.9706 13.9998 41.5999L5.46978 50.0799C4.34394 51.211 3.71355 52.7431 3.7173 54.339C3.71916 55.1292 3.87664 55.9114 4.18077 56.6407C4.48489 57.3701 4.92969 58.0324 5.48978 58.5899C6.04987 59.1473 6.71427 59.589 7.44506 59.8897C8.17584 60.1904 8.9587 60.3442 9.74892 60.3424C11.3449 60.3386 12.8739 59.701 13.9998 58.5699L22.4898 50.0799C23.1092 49.4523 23.5826 48.6959 23.8765 47.8646C24.1703 47.0332 24.2773 46.1473 24.1898 45.2699L31.9998 37.4599L43.9998 49.5299C43.6693 50.8333 43.6681 52.1984 43.9963 53.5023C44.3245 54.8063 44.9717 56.0082 45.8798 56.9999C46.6277 57.8036 47.5331 58.4447 48.5395 58.8834C49.5459 59.3221 50.6319 59.549 51.7298 59.5499C52.646 59.55 53.5556 59.3944 54.4198 59.0899C54.5788 59.0331 54.7208 58.9371 54.8327 58.8107C54.9445 58.6842 55.0226 58.5316 55.0595 58.3668C55.0964 58.2021 55.0911 58.0307 55.0439 57.8687C54.9967 57.7066 54.9093 57.5591 54.7898 57.4399L52.4398 55.0899C52.0673 54.7152 51.8582 54.2082 51.8582 53.6799C51.8582 53.1515 52.0673 52.6446 52.4398 52.2699C52.6255 52.0839 52.8461 51.9364 53.0889 51.8358C53.3317 51.7351 53.5919 51.6833 53.8548 51.6833C54.1176 51.6833 54.3779 51.7351 54.6207 51.8358C54.8635 51.9364 55.084 52.0839 55.2698 52.2699L57.6198 54.6099C57.7392 54.73 57.8872 54.8177 58.0499 54.865C58.2126 54.9122 58.3846 54.9173 58.5498 54.8799C58.714 54.8425 58.8661 54.7642 58.9919 54.6523C59.1178 54.5404 59.2134 54.3986 59.2698 54.2399C59.7732 52.817 59.8638 51.2807 59.5311 49.8084C59.1985 48.3362 58.4561 46.9881 57.3898 45.9199V45.9199ZM37.8498 12.8399C37.5328 12.8741 37.2122 12.8321 36.9147 12.7173C36.6173 12.6025 36.3516 12.4182 36.1398 12.1799C35.3998 11.3499 35.5898 10.0599 36.6198 9.02988L38.9298 6.71988C39.295 6.33391 39.7924 6.09994 40.3226 6.06472C40.8528 6.02949 41.3767 6.19561 41.7898 6.52988C42.0238 6.73857 42.2054 6.99936 42.3201 7.29119C42.4347 7.58302 42.4792 7.89772 42.4498 8.20988C42.388 9.19253 42.5432 10.1768 42.9044 11.0927C43.2656 12.0087 43.8239 12.8339 44.5398 13.5099L44.6998 13.6799C44.7927 13.7736 44.9033 13.848 45.0252 13.8988C45.1471 13.9495 45.2778 13.9757 45.4098 13.9757C45.5418 13.9757 45.6725 13.9495 45.7944 13.8988C45.9162 13.848 46.0268 13.7736 46.1198 13.6799L47.5298 12.2599L48.6098 13.3399C51.3428 16.0721 52.9399 19.7379 53.0798 23.5999L50.3798 20.7599C50.1871 20.57 49.9301 20.4594 49.6598 20.4499V20.4499C49.396 20.4536 49.1444 20.5615 48.9598 20.7499L47.5398 22.1599L46.6998 21.3099L42.6998 17.3099L42.5898 17.2099L43.2998 16.4999C43.486 16.3125 43.5906 16.0591 43.5906 15.7949C43.5906 15.5307 43.486 15.2772 43.2998 15.0899L42.9998 14.8299C42.3434 14.136 41.5406 13.5973 40.6496 13.253C39.7587 12.9087 38.8022 12.7676 37.8498 12.8399V12.8399ZM41.9998 19.4399L44.5598 21.9999L36.1998 30.3899L33.6098 27.7999L41.9998 19.4399ZM20.9998 48.6699L12.5098 57.1499C12.1504 57.568 11.7086 57.9072 11.2119 58.1464C10.7152 58.3856 10.1744 58.5196 9.62354 58.5399C9.07263 58.5602 8.52348 58.4664 8.01054 58.2644C7.4976 58.0624 7.03196 57.7565 6.64284 57.366C6.25372 56.9755 5.94952 56.5088 5.74933 55.9951C5.54914 55.4815 5.45729 54.932 5.47954 54.3812C5.50178 53.8303 5.63765 53.2901 5.87862 52.7942C6.11958 52.2984 6.46043 51.8577 6.87978 51.4999L15.3698 42.9999C16.1188 42.2579 17.1305 41.8417 18.1848 41.8417C19.2391 41.8417 20.2508 42.2579 20.9998 42.9999C21.3732 43.3716 21.6695 43.8133 21.8717 44.2998C22.0739 44.7864 22.1779 45.308 22.1779 45.8349C22.1779 46.3617 22.0739 46.8834 21.8717 47.3699C21.6695 47.8564 21.3732 48.2982 20.9998 48.6699ZM23.4698 43.0899C23.1988 42.5395 22.8409 42.0364 22.4098 41.5999C21.9571 41.1576 21.4374 40.7897 20.8698 40.5099L27.9298 33.5099L30.5398 35.9999L23.4698 43.0899ZM57.7198 51.8999L56.7198 50.8999C55.9572 50.1724 54.9437 49.7665 53.8898 49.7665C52.8358 49.7665 51.8224 50.1724 51.0598 50.8999C50.6879 51.2714 50.3928 51.7125 50.1915 52.1981C49.9902 52.6837 49.8866 53.2042 49.8866 53.7299C49.8866 54.2555 49.9902 54.776 50.1915 55.2616C50.3928 55.7472 50.6879 56.1884 51.0598 56.5599L52.0598 57.5599C51.1814 57.6126 50.3023 57.4694 49.486 57.1408C48.6698 56.8122 47.9367 56.3064 47.3398 55.6599C46.6089 54.8475 46.1093 53.854 45.8929 52.7829C45.6766 51.7118 45.7515 50.6022 46.1098 49.5699C46.1641 49.3971 46.1704 49.2128 46.1282 49.0367C46.0859 48.8605 45.9966 48.6992 45.8698 48.5699L15.2998 17.9999C15.2063 17.9072 15.0955 17.8339 14.9737 17.7841C14.8518 17.7343 14.7214 17.7091 14.5898 17.7099C14.4809 17.7061 14.3723 17.7231 14.2698 17.7599C13.2348 18.1143 12.1237 18.1843 11.0525 17.9627C9.98123 17.741 8.98913 17.2358 8.17978 16.4999C7.53659 15.9004 7.03301 15.1669 6.70469 14.3513C6.37636 13.5356 6.2313 12.6578 6.27978 11.7799L7.27978 12.7799C8.02637 13.5384 9.04369 13.9693 10.108 13.9777C11.1722 13.9861 12.1963 13.5715 12.9548 12.8249C13.7133 12.0783 14.1442 11.061 14.1526 9.9967C14.1611 8.93243 13.7464 7.9084 12.9998 7.14988L11.9998 6.14988C12.9882 6.09267 13.9755 6.28096 14.8735 6.69797C15.7715 7.11499 16.5524 7.74776 17.1465 8.53985C17.7406 9.33195 18.1294 10.2588 18.2783 11.2376C18.4271 12.2165 18.3315 13.217 17.9998 14.1499C17.9342 14.3286 17.921 14.5224 17.9617 14.7084C18.0025 14.8944 18.0955 15.0649 18.2298 15.1999L48.6798 45.6999C48.8101 45.825 48.972 45.9124 49.148 45.9529C49.3241 45.9934 49.5079 45.9855 49.6798 45.9299C50.6127 45.5982 51.6132 45.5025 52.592 45.6514C53.5709 45.8003 54.4977 46.1891 55.2898 46.7832C56.0819 47.3772 56.7147 48.1581 57.1317 49.0561C57.5487 49.9541 57.737 50.9414 57.6798 51.9299L57.7198 51.8999Z" fill="#0C8CE9"/>
</svg>
