<svg width="269" height="242" viewBox="0 0 269 242" fill="none" xmlns="http://www.w3.org/2000/svg">
<path d="M189.246 54.8503H216.463L231.308 69.9469V217.893H48.2145V69.9469L63.0599 54.8503H174.401" stroke="#010000" stroke-width="10.0573" stroke-miterlimit="10" stroke-linejoin="round"/>
<path d="M189.447 31.2903H249.071V244.24H229.196V226.974H50.3261V244.24H30.4517V31.2903H174.542" stroke="#010000" stroke-width="10.0573" stroke-miterlimit="10" stroke-linejoin="round"/>
<path d="M164.604 197.283H81.38C77.9019 197.283 75.1692 193.943 75.1692 189.693C75.1692 185.443 77.9019 182.104 81.38 182.104H197.894C201.372 182.104 204.105 185.443 204.105 189.693C204.105 193.943 201.62 197.283 198.142 197.283H179.51" stroke="#010000" stroke-width="10.0573" stroke-miterlimit="10" stroke-linecap="round" stroke-linejoin="round"/>
<path d="M90.5718 209.174V203.943" stroke="#010000" stroke-width="10.0573" stroke-miterlimit="10" stroke-linejoin="round"/>
<path d="M188.951 209.174V203.943" stroke="#010000" stroke-width="10.0573" stroke-miterlimit="10" stroke-linejoin="round"/>
<path d="M154.791 100.189H124.731V140.296H154.791V100.189Z" stroke="#010000" stroke-width="10.0573" stroke-miterlimit="10" stroke-linecap="round" stroke-linejoin="round"/>
<path d="M144.544 100.188V88.8538" stroke="#010000" stroke-width="10.0573" stroke-miterlimit="10" stroke-linejoin="round"/>
<path d="M132.06 143.245C130.818 141.12 131.563 139.602 133.55 139.602H145.972C147.959 139.602 148.705 141.12 147.463 143.245L141.997 152.656C140.755 154.781 138.768 154.781 137.525 152.656L132.06 143.245Z" stroke="#010000" stroke-width="10.0573" stroke-miterlimit="10" stroke-linejoin="round"/>
<path d="M144.73 84.9566C144.73 84.9566 144.73 82.2243 144.73 78.8849C144.73 75.5454 149.202 72.8132 154.667 72.8132H172.057C177.523 72.8132 181.994 67.3486 181.994 60.6697V18.1678C181.994 11.4889 177.523 6.02441 172.057 6.02441H159.636C154.17 6.02441 149.698 10.2746 149.698 15.132C149.698 19.9893 149.698 24.2395 149.698 24.2395" stroke="#010000" stroke-width="10.0573" stroke-miterlimit="10" stroke-linejoin="round"/>
<path d="M48.2145 113.267H117.216" stroke="#010000" stroke-width="10.0573" stroke-miterlimit="10" stroke-linejoin="round"/>
<path d="M162.306 113.267H231.308" stroke="#010000" stroke-width="10.0573" stroke-miterlimit="10" stroke-linejoin="round"/>
</svg>
