<svg width="108" height="123" viewBox="0 0 108 123" fill="none" xmlns="http://www.w3.org/2000/svg">
<path d="M0 7.6875V115.312H108V7.6875H0ZM58.7732 91.6254C58.7732 102.1 52.6018 106.88 43.6098 106.88C35.4857 106.88 30.7848 102.7 28.3741 97.6312L36.6429 92.6584C38.2339 95.4691 39.6804 97.8475 43.1759 97.8475C46.5027 97.8475 48.6241 96.5502 48.6241 91.4812V57.1037H58.7732V91.6254ZM82.7839 106.88C73.358 106.88 67.2589 102.412 64.2938 96.5502L72.5625 91.7936C74.7321 95.325 77.5768 97.9436 82.567 97.9436C86.7616 97.9436 89.4616 95.8535 89.4616 92.9467C89.4616 89.4873 86.7134 88.2621 82.0607 86.2201L79.5295 85.1391C72.2009 82.04 67.3554 78.1242 67.3554 69.8842C67.3554 62.2928 73.1652 56.5271 82.2054 56.5271C88.6661 56.5271 93.2946 58.7613 96.6214 64.623L88.7143 69.668C86.9786 66.5689 85.0982 65.3438 82.1813 65.3438C79.2161 65.3438 77.3357 67.2176 77.3357 69.668C77.3357 72.6949 79.2161 73.9201 83.5795 75.818L86.1107 76.899C94.7411 80.5746 99.5866 84.3463 99.5866 92.8025C99.5866 101.883 92.4027 106.88 82.7839 106.88Z" fill="#4F4F4F"/>
</svg>
