<svg width="108" height="109" viewBox="0 0 108 109" fill="none" xmlns="http://www.w3.org/2000/svg">
<path d="M0 0.6875V108.312H108V0.6875H0ZM58.7732 84.6254C58.7732 95.0996 52.6018 99.8803 43.6098 99.8803C35.4857 99.8803 30.7848 95.7002 28.3741 90.6312L36.6429 85.6584C38.2339 88.4691 39.6804 90.8475 43.1759 90.8475C46.5027 90.8475 48.6241 89.5502 48.6241 84.4812V50.1037H58.7732V84.6254ZM82.7839 99.8803C73.358 99.8803 67.2589 95.4119 64.2938 89.5502L72.5625 84.7936C74.7321 88.325 77.5768 90.9436 82.567 90.9436C86.7616 90.9436 89.4616 88.8535 89.4616 85.9467C89.4616 82.4873 86.7134 81.2621 82.0607 79.2201L79.5295 78.1391C72.2009 75.04 67.3554 71.1242 67.3554 62.8842C67.3554 55.2928 73.1652 49.5271 82.2054 49.5271C88.6661 49.5271 93.2946 51.7613 96.6214 57.623L88.7143 62.668C86.9786 59.5689 85.0982 58.3438 82.1813 58.3438C79.2161 58.3438 77.3357 60.2176 77.3357 62.668C77.3357 65.6949 79.2161 66.9201 83.5795 68.818L86.1107 69.899C94.7411 73.5746 99.5866 77.3463 99.5866 85.8025C99.5866 94.8834 92.4027 99.8803 82.7839 99.8803Z" fill="#4F4F4F"/>
</svg>
