<svg width="255" height="222" viewBox="0 0 255 222" fill="none" xmlns="http://www.w3.org/2000/svg">
<path d="M38.9314 107.055L47.3932 107.403C48.2716 91.7647 54.9274 77.1975 66.6172 65.2845L60.1764 60.4609C47.2457 73.6434 39.9081 89.7426 38.9314 107.055Z" fill="black"/>
<path d="M165.984 136.8V85.0499H184.047C188.848 92.9777 191.415 101.872 191.415 110.925C191.415 119.977 188.848 128.859 184.047 136.8H165.984ZM157.504 136.8H89.6836C87.3493 136.8 85.445 135.139 85.445 133.104C85.445 131.066 87.3493 129.408 89.6836 129.408H102.399V122.013H89.6836C87.3493 122.013 85.445 120.352 85.445 118.317C85.445 116.281 87.3493 114.621 89.6836 114.621H102.399V107.229H89.6836C87.3493 107.229 85.445 105.568 85.445 103.533C85.445 101.497 87.3493 99.8367 89.6836 99.8367H102.399V92.4447H89.6836C87.3493 92.4447 85.445 90.7841 85.445 88.746C85.445 86.7105 87.3493 85.0499 89.6836 85.0499H157.504V136.8ZM144.373 169.748C144.475 169.879 144.588 169.978 144.705 170.08C151.493 176.042 154.491 184.519 152.801 192.749L132.601 175.177C130.945 173.733 128.264 173.733 126.624 175.177L108.64 190.842C106.985 192.286 106.985 194.627 108.64 196.07L128.792 213.685C124.621 214.32 120.3 214.162 116.125 213.195C111.061 212.11 106.407 209.802 102.63 206.51C98.2928 202.755 95.4456 198.004 94.4013 192.749C92.712 184.433 95.7927 175.913 102.648 169.949C103.259 169.403 103.889 168.883 104.734 168.262C104.866 168.173 105.28 167.871 105.397 167.769C106.192 167.078 106.638 166.124 106.638 165.141V144.192H132.072V160.824C132.072 162.326 133.132 163.698 134.738 164.247C138.396 165.532 141.624 167.38 144.373 169.748ZM97.5157 51.5821C90.6757 45.6175 87.6626 37.114 89.3181 28.7979L109.485 46.3407C111.159 47.7843 113.825 47.7843 115.48 46.3407L133.464 30.6593C135.119 29.2318 135.119 26.891 133.464 25.434L113.312 7.8323C114.055 7.71713 114.817 7.61536 115.579 7.55912C123.893 6.7342 131.658 9.10449 137.585 13.5504C137.751 13.6817 137.917 13.7968 138.098 13.8959C138.547 14.2441 139.011 14.6057 139.471 15.0101C142.933 17.9964 145.418 21.5639 146.84 25.6349C149.969 34.4143 147.439 44.0748 140.251 50.8161C140.135 50.9179 140.052 51.0196 139.954 51.1187C139.821 51.2794 139.656 51.408 139.422 51.5955C137.933 52.9239 136.194 54.1238 134.09 55.2487C132.834 55.9289 132.072 57.1261 132.072 58.3983V77.6579H106.638V59.3223C106.638 57.9644 105.778 56.7217 104.402 56.0736C103.244 55.5245 102.301 55.0049 101.291 54.3407C99.9329 53.5319 98.6737 52.6079 97.5157 51.5821ZM145.418 77.6579H140.549V74.2645L145.418 77.6579ZM158.646 159.439L162.753 165.907C174.212 160.377 183.715 152.219 190.257 142.344C196.566 132.844 199.892 121.986 199.892 110.925C199.892 99.8635 196.566 89.0058 190.257 79.5059C183.021 68.5919 172.342 59.9276 159.359 54.413L155.652 61.0525C164.789 64.9387 172.621 70.6274 178.666 77.6579H158.993L140.549 64.7941V60.4044C142.386 59.2768 144.011 58.0796 145.482 56.7806C145.897 56.4191 146.262 56.087 146.576 55.7415C155.75 47.0477 158.944 34.7035 154.939 23.4547C153.118 18.2294 149.905 13.6094 145.451 9.7687C144.739 9.14734 144.026 8.61168 143.332 8.06263C143.215 7.97693 143.083 7.90462 142.951 7.81891C135.168 2.08738 124.934 -0.802488 114.685 0.193833C110.895 0.54201 107.185 1.36424 103.64 2.64982C102.35 3.12655 101.407 4.13627 101.125 5.34953C100.861 6.56279 101.291 7.80284 102.283 8.6706L124.471 28.0614L112.483 38.5013L90.261 19.1534C89.269 18.2723 87.8131 17.9241 86.4218 18.141C85.0304 18.3874 83.8694 19.2257 83.3411 20.3801C82.7944 21.5639 82.1648 22.9646 81.7839 24.3654C78.0921 35.9168 81.8177 48.3467 91.4712 56.7646C92.9946 58.1225 94.6992 59.3652 96.3394 60.332C96.9014 60.707 97.5157 61.082 98.1607 61.4435V77.6579H89.6836C82.6623 77.6579 76.9648 82.6261 76.9648 88.746C76.9648 91.5903 78.1903 94.1749 80.2113 96.1407C78.1903 98.1039 76.9648 100.688 76.9648 103.533C76.9648 106.377 78.1903 108.962 80.2113 110.925C78.1903 112.888 76.9648 115.473 76.9648 118.317C76.9648 121.161 78.1903 123.746 80.2113 125.709C78.1903 127.675 76.9648 130.259 76.9648 133.104C76.9648 139.224 82.6623 144.192 89.6836 144.192H98.1607V163.454C97.6478 163.856 97.1502 164.276 96.6527 164.71C87.8438 172.391 83.8878 183.348 86.0563 194.019C87.3985 200.792 91.075 206.928 96.6527 211.749C101.506 215.981 107.532 218.97 114.022 220.357C117.185 221.091 120.465 221.468 123.727 221.468C128.758 221.452 133.792 220.587 138.479 218.854C139.772 218.378 140.715 217.381 140.979 216.168C141.244 214.955 140.814 213.715 139.821 212.847L117.634 193.47L129.621 183.016L151.843 202.364C152.835 203.232 154.26 203.607 155.618 203.377C157.009 203.144 158.167 202.351 158.714 201.223C159.374 199.924 159.921 198.553 160.354 197.08C163.978 185.716 160.369 173.474 150.931 165.056C150.833 164.94 150.716 164.839 150.599 164.724C147.684 162.152 144.309 160.031 140.549 158.427V144.192H178.681C173.334 150.43 166.528 155.641 158.646 159.439Z" fill="black"/>
<path d="M87.2973 162.889L92.0672 156.766C74.6492 146.444 64.2493 129.306 64.2493 110.925C64.2493 93.1088 74.1516 76.2731 90.7434 65.876L85.7923 59.8687C66.9983 71.6504 55.7722 90.7386 55.7722 110.925C55.7722 131.759 67.5603 151.179 87.2973 162.889Z" fill="black"/>
<path d="M4.90629 125.709H23.2365C24.3791 131.904 26.2312 137.941 28.7313 143.745L12.9196 151.715C10.8833 152.725 10.2045 154.991 11.3624 156.766L24.0812 175.972C24.6432 176.824 25.5708 177.443 26.6612 177.702C27.7392 177.962 28.8972 177.82 29.8739 177.328L45.7224 169.33C50.2589 174.151 55.3237 178.57 60.8553 182.513L51.681 196.343C51.1189 197.195 50.953 198.207 51.251 199.145C51.5489 200.098 52.2615 200.907 53.2382 201.397L75.2787 212.485C75.9391 212.817 76.667 212.978 77.3796 212.978C78.8538 212.978 80.279 212.314 81.0561 211.13L85.012 205.182L77.6621 201.483L75.8408 204.242L61.1379 196.85L70.0296 183.45C71.1046 181.832 70.6409 179.784 68.9362 178.656C61.8474 173.964 55.5387 168.462 50.1575 162.284C48.8675 160.797 46.5148 160.393 44.6628 161.33L29.3118 169.07L20.8163 156.263L36.1519 148.539C37.9886 147.599 38.7656 145.622 37.9394 143.903C34.5271 136.843 32.2419 129.306 31.1178 121.552C30.8352 119.704 29.0477 118.317 26.91 118.317H9.14485V103.533H26.91C29.0477 103.533 30.8352 102.145 31.1178 100.297C31.9932 94.2337 33.5995 88.2719 35.8846 82.5805C36.5143 81.0084 37.1931 79.463 37.9394 77.9471C38.7656 76.2276 37.9886 74.2511 36.1519 73.311L20.8163 65.5868L29.3118 52.7793L44.6628 60.5195C46.4995 61.4569 48.8675 61.0391 50.1575 59.566C55.5387 53.3872 61.8474 47.886 68.9362 43.1937C70.6409 42.0661 71.1046 40.0172 70.0296 38.3995L61.1379 25.0001L75.0299 18.0258L70.7914 11.6167L53.2382 20.4524C52.2615 20.9425 51.5489 21.7513 51.251 22.7048C50.953 23.6422 51.1189 24.6546 51.681 25.5063L60.8553 39.3369C55.3237 43.2794 50.2589 47.6986 45.7224 52.5195L29.8739 44.5221C28.8972 44.0293 27.7392 43.8874 26.6612 44.1471C25.5708 44.4069 24.6432 45.0256 24.0812 45.8773L11.3624 65.0833C10.2045 66.859 10.8833 69.1248 12.9196 70.1345L28.7313 78.1051C28.4334 78.7854 28.1692 79.4496 27.8867 80.1272C25.8196 85.2963 24.244 90.6663 23.2365 96.1407H4.90629C2.57201 96.1407 0.667725 97.8012 0.667725 99.8367V122.013C0.667725 124.048 2.57201 125.709 4.90629 125.709Z" fill="black"/>
<path d="M77.6622 53.3283L72.3793 47.554C69.9775 49.2145 67.677 50.9902 65.5239 52.8382L71.4518 58.1225C73.4052 56.4485 75.4938 54.8442 77.6622 53.3283Z" fill="black"/>
<path d="M250.758 96.1409H232.431C231.289 89.946 229.433 83.9092 226.933 78.1053L242.745 70.1348C244.781 69.125 245.479 66.8592 244.302 65.0835L231.587 45.8775C231.021 45.0258 230.097 44.4071 229.003 44.1473C227.91 43.8876 226.767 44.0295 225.791 44.5223L209.945 52.5197C205.409 47.6988 200.341 43.2796 194.809 39.3371L203.984 25.5065C204.546 24.6548 204.712 23.6424 204.414 22.705C204.116 21.7515 203.403 20.9427 202.426 20.4525L180.389 9.36444C178.368 8.33866 175.77 8.94395 174.609 10.7197L163.631 27.2822L170.966 30.9782L179.824 17.6082L194.53 25.0003L185.638 38.3997C184.56 40.0174 185.024 42.0663 186.728 43.1939C193.817 47.8862 200.126 53.3874 205.507 59.5662C206.797 61.0527 209.165 61.4571 211.005 60.5197L226.353 52.7795L234.848 65.587L219.516 73.3112C217.676 74.2513 216.899 76.2279 217.725 77.9473C221.138 85.0073 223.423 92.544 224.55 100.298C224.829 102.146 226.617 103.533 228.755 103.533H246.52V118.317H228.755C226.617 118.317 224.829 119.704 224.55 121.552C223.423 129.306 221.138 136.843 217.725 143.903C216.899 145.622 217.676 147.599 219.516 148.539L234.848 156.263L226.353 169.071L211.005 161.33C209.165 160.393 206.797 160.797 205.507 162.284C200.126 168.463 193.817 173.964 186.728 178.656C185.024 179.784 184.56 181.833 185.638 183.45L194.53 196.85L179.824 204.242L175.555 197.787L168.217 201.483L174.609 211.13C175.389 212.314 176.811 212.978 178.285 212.978C178.998 212.978 179.726 212.818 180.389 212.486L202.426 201.398C203.403 200.907 204.116 200.099 204.414 199.145C204.712 198.208 204.546 197.195 203.984 196.344L194.809 182.513C200.341 178.571 205.409 174.151 209.945 169.33L225.791 177.328C226.767 177.821 227.91 177.963 229.003 177.703C230.097 177.443 231.021 176.824 231.587 175.973L244.302 156.767C245.479 154.991 244.781 152.725 242.745 151.715L226.933 143.745C229.433 137.941 231.289 131.904 232.431 125.709H250.758C253.096 125.709 255 124.049 255 122.013V99.837C255 97.8015 253.096 96.1409 250.758 96.1409Z" fill="black"/>
</svg>
