<svg width="326" height="273" viewBox="0 0 326 273" fill="none" xmlns="http://www.w3.org/2000/svg">
<path d="M69.1103 140.825C69.6222 139.693 69.3817 138.465 69.471 137.298C69.9317 131.428 71.1312 125.706 72.726 120.039C74.5036 113.719 77.04 107.693 80.1611 101.899C83.1785 96.3037 86.7704 91.0728 90.898 86.1864C97.3597 78.5458 104.86 72.0138 113.428 66.6623C119.528 62.8531 126.014 59.7691 132.851 57.344C139.484 54.9893 146.31 53.4811 153.265 52.491C155.83 52.1229 158.449 52.0448 161.051 51.8935C163.313 51.7631 165.571 51.6557 167.829 51.747C172.905 51.9541 177.957 52.3314 182.983 53.205C189.63 54.3653 196.058 56.1538 202.314 58.5879C210.848 61.9146 218.701 66.3833 225.915 71.9155C229.556 74.7087 233.027 77.6909 236.195 80.9729C239.462 84.3547 242.499 87.933 245.265 91.7185C245.701 92.3126 245.611 92.6068 245.003 92.9499C240.141 95.656 235.288 98.3614 230.456 101.113C229.666 101.565 229.383 101.049 229.06 100.62C226.449 97.1244 223.565 93.8591 220.338 90.8964C215.323 86.2924 209.823 82.327 203.771 79.0631C197.643 75.7602 191.16 73.3637 184.372 71.7307C180.455 70.7894 176.481 70.1702 172.446 69.8857C169.807 69.6995 167.174 69.4067 164.53 69.5148C154.36 69.9296 144.51 71.7676 135.114 75.7114C127.731 78.8065 120.973 82.8444 114.896 87.9156C107.899 93.7503 102.083 100.561 97.5426 108.352C92.9881 116.161 89.9916 124.541 88.4789 133.377C87.6337 138.359 87.1937 143.41 87.4825 148.468C88.0116 157.814 89.9916 166.84 93.8204 175.484C96.5908 181.729 100.114 187.53 104.483 192.812C110.817 200.473 118.361 206.841 127.218 211.696C133.691 215.243 140.53 217.889 147.762 219.552C151.542 220.419 155.365 221.028 159.241 221.311C161.806 221.494 164.363 221.79 166.933 221.683C174.79 221.369 182.509 220.308 190.027 217.921C197.482 215.551 204.406 212.199 210.834 207.873C213.579 206.017 216.138 203.94 218.647 201.79C223.614 197.535 227.782 192.63 231.433 187.305C234.78 182.425 237.48 177.219 239.547 171.7C241.105 167.512 242.303 163.251 243.113 158.874C243.553 156.506 243.734 154.111 244.049 151.734C244.31 149.743 244.213 147.746 244.332 145.761C244.473 143.299 244.199 140.803 243.972 138.332C243.587 134.178 242.789 130.088 241.685 126.056C240.738 122.589 239.526 119.219 238.082 115.925C237.773 115.221 237.866 114.88 238.576 114.491C243.375 111.844 248.152 109.161 252.919 106.456C253.594 106.075 253.819 106.187 254.133 106.86C257.192 113.365 259.433 120.119 260.856 127.126C261.907 132.26 262.452 137.432 262.659 142.673C262.798 146.387 262.663 150.078 262.391 153.748C261.967 159.285 260.934 164.757 259.416 170.13C257.495 176.963 254.871 183.524 251.416 189.755C248.222 195.511 244.512 200.929 240.113 205.906C237.803 208.519 235.466 211.095 232.883 213.456C227.86 218.041 222.45 222.136 216.549 225.635C210.419 229.274 203.974 232.222 197.168 234.465C190.83 236.549 184.344 237.987 177.702 238.759C176.08 238.949 174.467 239.233 172.848 239.471C169.252 239.471 165.651 239.471 162.056 239.471C161.816 239.196 161.485 239.273 161.183 239.273C158.065 239.253 154.961 238.998 151.9 238.521C145.414 237.517 139.055 236.043 132.862 233.86C126.015 231.442 119.54 228.349 113.436 224.54C104.868 219.191 97.3676 212.656 90.9066 205.014C86.7754 200.131 83.1835 194.895 80.1661 189.304C77.0458 183.507 74.5086 177.48 72.731 171.162C71.137 165.493 69.9375 159.776 69.476 153.9C69.3867 152.735 69.6272 151.509 69.1153 150.374C69.1103 147.191 69.1103 144.007 69.1103 140.825Z" fill="black"/>
<path d="M309.438 79.2297C306.7 80.7365 303.953 82.2251 301.227 83.748C295.665 86.8536 290.116 89.9732 284.561 93.0878C283.55 93.654 282.437 94.0968 281.55 94.8059C279.571 96.3901 277.515 96.3022 275.246 95.5346C273.346 94.8924 271.356 94.4991 269.432 93.9204C268.671 93.6945 268.097 93.8904 267.473 94.2418C258.784 99.1066 250.088 103.958 241.398 108.823C231.301 114.485 221.213 120.168 211.105 125.826C204.574 129.482 198.023 133.097 191.486 136.75C184.75 140.518 178.013 144.286 171.311 148.108C168.823 149.529 166.324 149.232 164.856 147.335C163.347 145.392 163.752 142.585 165.894 141.3C168.969 139.462 172.129 137.756 175.26 136.003C182.804 131.779 190.352 127.566 197.893 123.339C203.887 119.979 209.859 116.589 215.86 113.237C223.169 109.153 230.504 105.109 237.814 101.021C246.304 96.2702 254.776 91.4841 263.273 86.7455C263.925 86.3794 264.192 85.9032 264.365 85.2631C265.126 82.5054 265.931 79.7575 266.646 76.9866C266.793 76.4218 267.096 76.1624 267.548 75.9114C273.923 72.3602 280.292 68.8035 286.666 65.2446C290.261 63.2393 293.85 61.2249 297.632 59.1122C297.205 61.6195 296.833 63.9317 296.417 66.2347C295.93 68.8948 295.413 71.5472 294.918 74.2038C294.793 74.8439 294.859 75.3125 295.697 75.5223C300.282 76.6526 304.861 77.8372 309.437 79.0003C309.438 79.0784 309.438 79.1544 309.438 79.2297Z" fill="black"/>
<path d="M107.176 146.431C107.101 135.972 109.465 126.972 114.136 118.558C117.961 111.666 123.079 105.805 129.414 100.924C136.638 95.3589 144.763 91.6919 153.769 89.8261C158.735 88.7941 163.783 88.3249 168.849 88.633C181.711 89.4168 193.239 93.6415 203.262 101.551C206.498 104.108 209.397 107 211.985 110.182C212.541 110.865 212.52 111.191 211.66 111.664C206.24 114.628 200.855 117.649 195.487 120.696C194.811 121.078 194.51 121.059 193.957 120.486C187.788 114.102 180.219 110.154 171.304 108.898C164.04 107.873 156.957 108.828 150.248 111.852C139.741 116.587 132.791 124.355 129.282 135.024C127.866 139.317 127.46 143.758 127.794 148.214C128.381 156.014 131.2 163.017 136.397 169.047C142.93 176.65 151.258 181.191 161.428 182.363C171.715 183.548 181.04 181.012 189.221 174.894C197.163 168.955 201.93 161.099 203.611 151.493C204.557 146.092 204.216 140.778 202.652 135.528C202.495 134.998 202.47 134.731 203.088 134.392C208.66 131.313 214.203 128.179 219.742 125.041C220.37 124.685 220.608 124.729 220.886 125.446C222.447 129.398 223.498 133.457 224.088 137.65C224.562 141.02 224.853 144.397 224.679 147.79C224.33 154.793 222.851 161.564 219.978 168.028C217.572 173.435 214.404 178.382 210.46 182.848C206.795 187.003 202.531 190.497 197.798 193.471C191.656 197.333 185.004 200.016 177.847 201.42C173.433 202.292 168.943 202.765 164.414 202.593C158.836 202.386 153.375 201.547 148.047 199.909C141.606 197.932 135.695 194.969 130.34 190.988C123.964 186.255 118.774 180.515 114.781 173.734C111.031 167.361 108.724 160.551 107.632 153.334C107.244 150.758 107.052 148.163 107.176 146.431Z" fill="black"/>
<path d="M165.269 126.699C169.586 126.562 173.215 127.743 176.539 129.895C177.731 130.665 177.683 130.7 176.494 131.361C172.39 133.654 168.221 135.86 164.237 138.341C160.333 140.773 159.542 145.434 162.113 149.151C164.509 152.614 169.221 153.485 173.078 151.254C176.618 149.206 180.217 147.26 183.767 145.228C184.691 144.697 184.871 144.942 184.825 145.865C184.606 150.609 182.887 154.724 179.485 158.175C175.511 162.19 170.597 164.121 164.933 163.946C155.233 163.647 147.545 156.444 146.496 147.673C146.066 144.042 146.534 140.584 148.104 137.332C150.236 132.935 153.665 129.74 158.374 127.945C160.67 127.069 163.048 126.515 165.269 126.699Z" fill="black"/>
</svg>
