<svg width="122" height="121" viewBox="0 0 122 121" fill="none" xmlns="http://www.w3.org/2000/svg">
<path d="M99.6492 38.9199C98.3625 38.4374 97.0758 37.9817 95.7891 37.5527C96.0035 36.5609 96.1941 35.5691 96.3848 34.5772C99.3156 18.6005 97.3855 5.76008 90.8805 1.52463C84.6137 -2.52318 74.3914 1.68547 64.05 11.8184C63.0254 12.8102 62.0246 13.8557 61.0715 14.9011C60.4281 14.2042 59.7609 13.5072 59.0938 12.837C48.252 2.00715 37.3863 -2.54998 30.8813 1.71227C24.6383 5.78688 22.7797 17.8767 25.4008 32.9956C25.6629 34.4968 25.9488 35.9712 26.2824 37.4723C24.7574 37.9548 23.2562 38.491 21.8504 39.0539C9.12617 44.0131 0 51.8407 0 59.9363C0 68.3 9.72188 76.6904 22.9465 81.7837C24.0188 82.1858 25.091 82.5879 26.1871 82.9364C25.8297 84.5448 25.5199 86.1264 25.234 87.7616C22.732 102.639 24.6859 114.434 30.9289 118.482C37.3625 122.664 48.1805 118.375 58.7125 108.001C59.5465 107.17 60.3805 106.312 61.2145 105.4C62.2629 106.553 63.359 107.652 64.4551 108.724C74.6535 118.589 84.7328 122.583 90.952 118.536C97.3856 114.354 99.4824 101.674 96.766 86.2336C96.5516 85.0541 96.3133 83.8478 96.0512 82.6147C96.8137 82.3735 97.5523 82.1054 98.291 81.8373C112.04 76.7172 122 68.434 122 59.9363C122 51.8139 112.612 43.9327 99.6492 38.9199ZM67.4098 16.1611C76.2738 7.4757 84.5422 4.07126 88.307 6.51066C92.334 9.11091 93.8828 19.6191 91.357 33.4245C91.1902 34.336 91.0234 35.2206 90.809 36.1052C85.5191 34.7649 80.1578 33.7998 74.7727 33.2637C71.675 28.2777 68.2914 23.5061 64.6219 19.0294C65.5512 18.0375 66.4566 17.0993 67.4098 16.1611ZM39.8406 73.8489C41.0559 76.1811 42.2949 78.5133 43.6055 80.7919C39.8883 80.3361 36.1949 79.666 32.5492 78.7814C33.5977 74.9212 34.9082 70.927 36.4332 66.8524C37.5293 69.2114 38.6492 71.5436 39.8406 73.8489ZM32.6207 41.6006C36.052 40.7427 39.6977 40.0458 43.4863 39.5096C42.2234 41.7346 40.9844 44.0131 39.8168 46.3185C38.6492 48.5971 37.5055 50.9293 36.4332 53.2882C34.932 49.2941 33.6691 45.3803 32.6207 41.6006ZM39.1496 60.0703C40.7223 56.371 42.4379 52.7521 44.2488 49.1868C46.0598 45.6215 48.0137 42.1635 50.0629 38.759C53.6371 38.4642 57.2828 38.3033 61 38.3033C64.7172 38.3033 68.3867 38.4642 71.9371 38.759C73.9625 42.1367 75.8926 45.5947 77.7273 49.1332C79.5621 52.6717 81.2777 56.2906 82.898 59.9631C81.3016 63.6624 79.5859 67.3081 77.7512 70.9002C75.9402 74.4655 74.0102 77.9236 71.9848 81.3548C68.4344 81.6497 64.741 81.7837 61 81.7837C57.259 81.7837 53.6371 81.6497 50.1344 81.4084C48.0613 78.004 46.1074 74.5191 44.2727 70.9538C42.4379 67.3885 40.7461 63.7696 39.1496 60.0703ZM82.1832 73.7953C83.3984 71.4363 84.5422 69.0506 85.6621 66.638C87.1871 70.5249 88.5215 74.4655 89.6891 78.5133C85.9957 79.4515 82.2547 80.1753 78.4898 80.6578C79.7766 78.4061 80.9918 76.1007 82.1832 73.7953ZM85.6144 53.2882C84.4945 50.9293 83.3508 48.5703 82.1594 46.2649C80.9918 43.9863 79.7766 41.7346 78.5137 39.5096C82.35 40.0458 86.0195 40.7695 89.4508 41.6542C88.3547 45.6215 87.068 49.4817 85.6144 53.2882ZM61.0477 23.1308C63.5496 26.1867 65.9086 29.4035 68.1008 32.7276C63.3828 32.4863 58.641 32.4863 53.923 32.7276C56.2582 29.2695 58.6648 26.0527 61.0477 23.1308ZM33.407 6.69831C37.4102 4.07126 46.298 7.82419 55.6625 17.1529C56.2582 17.7426 56.8539 18.386 57.4734 19.0294C53.7801 23.5061 50.3727 28.2777 47.2512 33.2637C41.866 33.7998 36.5285 34.7381 31.2387 36.0516C30.9289 34.6844 30.6668 33.2905 30.4047 31.8966C28.1648 18.9221 29.6422 9.13771 33.407 6.69831ZM27.5691 77.3606C26.5684 77.0389 25.5914 76.6904 24.6145 76.3152C19.5391 74.5191 13.7727 71.6776 9.60273 67.9515C7.19609 66.075 5.57578 63.1799 5.12305 59.9363C5.12305 55.0307 12.6527 48.7579 23.5184 44.4957C24.8766 43.9595 26.2586 43.477 27.6406 43.0213C29.2609 48.8383 31.2148 54.5482 33.4785 60.0703C31.191 65.6729 29.2133 71.4632 27.5691 77.3606ZM55.3527 103.631C51.4211 107.679 46.8699 110.896 41.9137 113.094C39.2687 114.515 36.2188 114.649 33.5023 113.442C29.7137 110.976 28.141 101.513 30.2855 88.7802C30.5477 87.2791 30.8336 85.7779 31.1672 84.3035C36.5047 85.5902 41.8898 86.4749 47.3465 86.9306C50.4918 91.9434 53.9469 96.7418 57.6402 101.245C56.8777 102.076 56.1152 102.881 55.3527 103.631ZM61.1906 97.1171C58.7602 94.1684 56.3297 90.898 53.9707 87.3863C56.2582 87.4935 58.6172 87.5471 61 87.5471C63.4543 87.5471 65.8609 87.4935 68.2438 87.3595C66.0516 90.7639 63.6926 94.0075 61.1906 97.1171ZM92.334 105.159C92.1195 108.43 90.6898 111.485 88.4023 113.55C84.6137 116.016 76.5359 112.799 67.8148 104.382C66.8141 103.417 65.8133 102.371 64.7887 101.299C68.4344 96.7686 71.7941 91.9702 74.8441 86.9306C80.3008 86.4212 85.7336 85.483 91.0949 84.1159C91.3332 85.215 91.5477 86.314 91.7383 87.3863C92.9059 93.1765 93.0965 99.208 92.334 105.159ZM96.6707 76.342C96.0035 76.5832 95.3363 76.8245 94.6453 77.0389C92.9773 71.1951 90.9281 65.4853 88.5691 59.9363C90.8566 54.4677 92.7867 48.8383 94.407 43.0749C95.6461 43.477 96.8375 43.9059 97.9813 44.3348C109.085 48.6239 116.877 55.0039 116.877 59.8827C116.877 65.1368 108.561 71.9189 96.6707 76.342ZM61 72.321C67.0285 72.321 71.9133 66.8256 71.9133 60.0435C71.9133 53.2614 67.0285 47.7661 61 47.7661C54.9715 47.7661 50.0867 53.2614 50.0867 60.0435C50.0867 66.8256 54.9715 72.321 61 72.321Z" fill="#4F4F4F"/>
</svg>
