<svg width="256" height="256" viewBox="0 0 256 256" fill="none" xmlns="http://www.w3.org/2000/svg">
<path d="M140.809 132.146C140.809 129.796 138.893 127.881 136.546 127.881C134.196 127.881 132.28 129.796 132.28 132.146C132.28 134.492 134.196 136.407 136.546 136.407C138.893 136.407 140.809 134.492 140.809 132.146Z" fill="black"/>
<path d="M157.865 132.146C157.865 129.796 155.95 127.881 153.6 127.881C151.252 127.881 149.337 129.796 149.337 132.146C149.337 134.492 151.252 136.407 153.6 136.407C155.95 136.407 157.865 134.492 157.865 132.146Z" fill="black"/>
<path d="M174.919 132.146C174.919 129.796 173.004 127.881 170.656 127.881C168.309 127.881 166.394 129.796 166.394 132.146C166.394 134.492 168.309 136.407 170.656 136.407C173.004 136.407 174.919 134.492 174.919 132.146Z" fill="black"/>
<path d="M119.489 132.146C119.489 129.796 117.574 127.881 115.226 127.881H89.6411C87.2938 127.881 85.3784 129.796 85.3784 132.146C85.3784 134.492 87.2938 136.407 89.6411 136.407H115.226C117.574 136.407 119.489 134.492 119.489 132.146Z" fill="black"/>
<path d="M136.546 93.78C134.196 93.78 132.28 95.6949 132.28 98.0415C132.28 100.391 134.196 102.306 136.546 102.306C138.893 102.306 140.809 100.391 140.809 98.0415C140.809 95.6949 138.893 93.78 136.546 93.78Z" fill="black"/>
<path d="M153.6 93.78C151.252 93.78 149.337 95.6949 149.337 98.0415C149.337 100.391 151.252 102.306 153.6 102.306C155.95 102.306 157.865 100.391 157.865 98.0415C157.865 95.6949 155.95 93.78 153.6 93.78Z" fill="black"/>
<path d="M170.656 93.78C168.309 93.78 166.394 95.6949 166.394 98.0415C166.394 100.391 168.309 102.306 170.656 102.306C173.004 102.306 174.919 100.391 174.919 98.0415C174.919 95.6949 173.004 93.78 170.656 93.78Z" fill="black"/>
<path d="M115.226 93.78H89.6411C87.2938 93.78 85.3784 95.6949 85.3784 98.0415C85.3784 100.391 87.2938 102.306 89.6411 102.306H115.226C117.574 102.306 119.489 100.391 119.489 98.0415C119.489 95.6949 117.574 93.78 115.226 93.78Z" fill="black"/>
<path d="M132.28 63.9405C132.28 66.2902 134.196 68.2051 136.546 68.2051C138.893 68.2051 140.809 66.2902 140.809 63.9405C140.809 61.594 138.893 59.6791 136.546 59.6791C134.196 59.6791 132.28 61.594 132.28 63.9405Z" fill="black"/>
<path d="M153.6 68.2051C155.95 68.2051 157.865 66.2902 157.865 63.9405C157.865 61.594 155.95 59.6791 153.6 59.6791C151.252 59.6791 149.337 61.594 149.337 63.9405C149.337 66.2902 151.252 68.2051 153.6 68.2051Z" fill="black"/>
<path d="M174.919 63.9405C174.919 61.594 173.004 59.6791 170.656 59.6791C168.309 59.6791 166.394 61.594 166.394 63.9405C166.394 66.2902 168.309 68.2051 170.656 68.2051C173.004 68.2051 174.919 66.2902 174.919 63.9405Z" fill="black"/>
<path d="M89.6411 59.6791C87.2938 59.6791 85.3784 61.594 85.3784 63.9405C85.3784 66.2902 87.2938 68.2051 89.6411 68.2051H115.226C117.574 68.2051 119.489 66.2902 119.489 63.9405C119.489 61.594 117.574 59.6791 115.226 59.6791H89.6411Z" fill="black"/>
<path d="M165.444 197.335C163.778 195.67 161.079 195.67 159.414 197.335C157.748 199 157.748 201.695 159.414 203.36L166.258 210.206L142.141 234.316L130.815 222.993C129.483 221.677 127.45 221.378 125.803 222.244C121.972 224.292 117.99 225.941 113.977 227.172C112.179 227.724 110.961 229.389 110.961 231.251V247.236H76.85V231.251C76.85 229.389 75.6347 227.724 73.8365 227.172C69.8206 225.941 65.8417 224.292 62.0109 222.244C60.3607 221.378 58.3281 221.677 56.9956 222.993L45.6696 234.316L21.5525 210.206L32.8785 198.883C34.1955 197.566 34.4947 195.534 33.628 193.869C31.5799 190.024 29.9298 186.043 28.6991 182.047C28.1501 180.249 26.4845 179.034 24.6184 179.034H8.62877V144.933H24.6184C26.4845 144.933 28.1501 143.718 28.6991 141.917C29.9298 137.921 31.5799 133.943 33.628 130.095C34.4947 128.43 34.1955 126.401 32.8785 125.084L21.5525 113.762L45.6696 89.6513L52.517 96.4937C54.1826 98.1588 56.8815 98.1588 58.547 96.4937C60.2126 94.8285 60.2126 92.1304 58.547 90.4653L48.6861 80.5918C47.0206 78.9452 44.3217 78.9452 42.6561 80.5918L12.4935 110.749C11.6916 111.548 11.2444 112.63 11.2444 113.762C11.2444 114.893 11.6916 115.976 12.4935 116.774L24.6678 128.93C23.4864 131.378 22.4346 133.894 21.5371 136.407H4.36301C2.01577 136.407 0.100342 138.322 0.100342 140.669V183.296C0.100342 185.645 2.01577 187.56 4.36301 187.56H21.5371C22.4346 190.073 23.4864 192.59 24.6678 195.035L12.4935 207.19C11.6916 207.992 11.2444 209.074 11.2444 210.206C11.2444 211.338 11.6916 212.42 12.4935 213.219L42.6561 243.376C44.3217 245.022 47.0206 245.022 48.6861 243.376L60.8449 231.202C63.294 232.386 65.7924 233.434 68.3216 234.332V251.501C68.3216 253.847 70.237 255.762 72.5873 255.762H115.226C117.574 255.762 119.489 253.847 119.489 251.501V234.332C122.021 233.434 124.52 232.386 126.969 231.202L139.128 243.376C140.793 245.022 143.492 245.022 145.158 243.376L175.32 213.219C176.97 211.553 176.97 208.855 175.32 207.19L165.444 197.335Z" fill="black"/>
<path d="M55.3299 162.001C52.9827 162.232 51.2677 164.332 51.4991 166.663C53.8987 190.724 73.9536 208.874 98.1694 208.874C105.149 208.874 111.944 207.292 118.406 204.193C120.522 203.163 121.423 200.613 120.405 198.501C119.372 196.385 116.843 195.485 114.708 196.503C109.412 199.05 103.851 200.348 98.1694 200.348C78.3489 200.348 61.9429 185.513 59.9936 165.83C59.7622 163.481 57.6463 161.766 55.3299 162.001Z" fill="black"/>
<path d="M234.615 179.034C232.268 179.034 230.352 177.119 230.352 174.773C230.352 172.423 232.268 170.508 234.615 170.508C236.962 170.508 238.878 172.423 238.878 174.773C238.878 177.119 236.962 179.034 234.615 179.034ZM170.656 179.034H98.1695V170.508H123.755C126.102 170.508 128.017 168.593 128.017 166.247V153.459H136.546V166.247C136.546 168.593 138.461 170.508 140.809 170.508H170.656V179.034ZM76.85 110.832V85.2541H187.713V110.832H76.85ZM251.672 42.627H239.929C239.695 42.0288 239.445 41.446 239.195 40.8633L247.489 32.5531C249.155 30.888 249.155 28.1898 247.489 26.5247L229.402 8.44277C227.737 6.77765 225.038 6.77765 223.372 8.44277L215.06 16.7344C214.477 16.4847 213.894 16.2349 213.296 16.0036V4.26455C213.296 1.91489 211.38 0 209.033 0H183.448C181.1 0 179.185 1.91489 179.185 4.26455V16.0036C178.583 16.2349 178 16.4847 177.418 16.7344L169.108 8.44277C167.442 6.77765 164.744 6.77765 163.078 8.44277L144.991 26.5247C143.325 28.1898 143.325 30.888 144.991 32.5531C146.657 34.2182 149.352 34.2182 151.018 32.5531L166.092 17.4838L173.522 24.912C174.836 26.2256 176.868 26.5247 178.519 25.6768C180.567 24.5944 182.664 23.7279 184.731 23.0804C186.513 22.513 187.713 20.8633 187.713 19.0163V8.52603H204.767V19.0163C204.767 20.8633 205.967 22.513 207.75 23.0804C209.813 23.7279 211.914 24.5944 213.962 25.6768C215.612 26.5247 217.641 26.2256 218.959 24.912L226.386 17.4838L238.446 29.5404L231.019 36.9656C229.702 38.2823 229.384 40.3144 230.251 41.961C231.333 44.027 232.2 46.1084 232.851 48.1713C233.415 49.9536 235.065 51.1531 236.913 51.1531H247.406V68.2051H236.913C235.065 68.2051 233.415 69.4016 232.851 71.1838C232.2 73.2498 231.333 75.3312 230.251 77.3941C229.384 79.0438 229.702 81.0759 231.019 82.3895L238.446 89.8178L226.386 101.871L218.959 94.4462C217.641 93.1141 215.612 92.815 213.962 93.6814C211.914 94.7638 209.813 95.6272 207.75 96.2778C205.967 96.8452 204.767 98.4918 204.767 100.342V115.094C204.767 117.44 206.683 119.355 209.033 119.355C211.38 119.355 213.296 117.44 213.296 115.094V103.355C213.894 103.12 214.477 102.87 215.06 102.621L223.372 110.915C225.038 112.581 227.737 112.581 229.402 110.915L230.352 109.966V162.765C226.737 164.048 223.887 166.894 222.607 170.508H179.185V166.247C179.185 163.897 177.269 161.982 174.919 161.982H145.074V153.459H191.976C194.323 153.459 196.239 151.544 196.239 149.195V46.8916C196.239 44.5419 194.323 42.627 191.976 42.627H162.128C159.781 42.627 157.865 44.5419 157.865 46.8916C157.865 49.2382 159.781 51.1531 162.128 51.1531H187.713V76.7281H76.85V51.1531H145.074C147.422 51.1531 149.337 49.2382 149.337 46.8916C149.337 44.5419 147.422 42.627 145.074 42.627H72.5873C70.237 42.627 68.3215 44.5419 68.3215 46.8916V149.195C68.3215 151.544 70.237 153.459 72.5873 153.459H89.6411C91.9914 153.459 93.9068 151.544 93.9068 149.195C93.9068 146.848 91.9914 144.933 89.6411 144.933H76.85V119.355H187.713V144.933H106.698C104.351 144.933 102.435 146.848 102.435 149.195C102.435 151.544 104.351 153.459 106.698 153.459H119.489V161.982H93.9068C91.5565 161.982 89.6411 163.897 89.6411 166.247V170.508H76.85C74.5027 170.508 72.5873 172.423 72.5873 174.773C72.5873 177.119 74.5027 179.034 76.85 179.034H89.6411V183.296C89.6411 185.645 91.5565 187.56 93.9068 187.56H174.919C177.269 187.56 179.185 185.645 179.185 183.296V179.034H222.607C224.372 183.98 229.069 187.56 234.615 187.56C241.678 187.56 247.406 181.831 247.406 174.773C247.406 169.225 243.825 164.532 238.878 162.765V101.44L247.489 92.8304C249.155 91.1653 249.155 88.4672 247.489 86.802L239.195 78.4949C239.445 77.9122 239.695 77.3294 239.929 76.7281H251.672C254.019 76.7281 255.935 74.8132 255.935 72.4666V46.8916C255.935 44.5419 254.019 42.627 251.672 42.627Z" fill="black"/>
<path d="M206.467 73.2313C204.585 74.6466 204.203 77.3293 205.634 79.2103C206.467 80.308 207.75 80.8908 209.033 80.8908C209.93 80.8908 210.831 80.6102 211.596 80.0428C218.092 75.1308 221.824 67.7056 221.824 59.6791C221.824 51.6526 218.092 44.2274 211.596 39.3153C209.73 37.9 207.05 38.2638 205.634 40.1479C204.203 42.0289 204.585 44.7085 206.467 46.1238C210.797 49.4047 213.295 54.3507 213.295 59.6791C213.295 65.0075 210.797 69.9535 206.467 73.2313Z" fill="black"/>
</svg>
