<svg width="257" height="257" viewBox="0 0 257 257" fill="none" xmlns="http://www.w3.org/2000/svg">
<path d="M98.3683 98.6718H59.9919V107.198H98.3683V98.6718Z" fill="black"/>
<path d="M59.9919 124.25H85.5772V115.724H59.9919V124.25Z" fill="black"/>
<path d="M123.95 115.724H94.1025V124.25H123.95V115.724Z" fill="black"/>
<path d="M59.9919 141.299H68.5204V132.776H59.9919V141.299Z" fill="black"/>
<path d="M123.951 132.776H77.0488V141.299H123.951V132.776Z" fill="black"/>
<path d="M85.5772 149.825H59.9919V158.351H85.5772V149.825Z" fill="black"/>
<path d="M123.95 149.825H94.1025V158.351H123.95V149.825Z" fill="black"/>
<path d="M59.9919 175.403H77.0488V166.877H59.9919V175.403Z" fill="black"/>
<path d="M123.95 166.877H85.5771V175.403H123.95V166.877Z" fill="black"/>
<path d="M158.061 132.776H132.479V141.299H158.061V132.776Z" fill="black"/>
<path d="M132.479 175.403H158.061V166.877H132.479V175.403Z" fill="black"/>
<path d="M51.4636 115.724H42.9382V124.25H51.4636V115.724Z" fill="black"/>
<path d="M51.4636 132.776H42.9382V141.299H51.4636V132.776Z" fill="black"/>
<path d="M51.4636 149.825H42.9382V158.351H51.4636V149.825Z" fill="black"/>
<path d="M42.9382 175.403H51.4636V166.877H42.9382V175.403Z" fill="black"/>
<path d="M51.4636 98.6718H42.9382V107.198H51.4636V98.6718Z" fill="black"/>
<path d="M204.966 124.25H213.494V115.724H204.966V124.25Z" fill="black"/>
<path d="M204.966 141.299H213.494V132.776H204.966V141.299Z" fill="black"/>
<path d="M204.966 158.351H213.494V149.825H204.966V158.351Z" fill="black"/>
<path d="M204.966 175.403H213.494V166.877H204.966V175.403Z" fill="black"/>
<path d="M213.494 98.6718H204.966V107.198H213.494V98.6718Z" fill="black"/>
<path d="M183.647 77.3582H72.7832V9.15615H183.647V77.3582ZM192.175 81.6227V4.89468C192.175 2.54501 190.26 0.630127 187.909 0.630127H68.5205C66.1732 0.630127 64.2578 2.54501 64.2578 4.89468V81.6227C64.2578 83.9693 66.1732 85.8842 68.5205 85.8842H187.909C190.26 85.8842 192.175 83.9693 192.175 81.6227Z" fill="black"/>
<path d="M99.6173 63.3219L105.647 57.2935L91.604 43.2572L105.647 29.2209L99.6173 23.1925L82.5605 40.2446C80.8949 41.9097 80.8949 44.6078 82.5605 46.2729L99.6173 63.3219Z" fill="black"/>
<path d="M156.812 63.3219L173.869 46.2729C175.534 44.6078 175.534 41.9097 173.869 40.2446L156.812 23.1925L150.785 29.2209L164.825 43.2572L150.785 57.2935L156.812 63.3219Z" fill="black"/>
<path d="M148.817 20.0473L141.723 15.3171L107.612 66.4702L114.706 71.1973L148.817 20.0473Z" fill="black"/>
<path d="M247.605 200.978C247.605 208.039 241.874 213.765 234.814 213.765H21.6186C14.5553 213.765 8.82441 208.039 8.82441 200.978V196.716H247.605V200.978ZM158.061 247.866H98.3682V222.291H158.061V247.866ZM234.814 51.7832H200.7V60.3092H234.814C241.874 60.3092 247.605 66.0354 247.605 73.0967V77.3582H200.7V85.8842H247.605V188.19H8.82441V85.8842H55.7292V77.3582H8.82441V73.0967C8.82441 66.0354 14.5553 60.3092 21.6186 60.3092H55.7292V51.7832H21.6186C9.85769 51.7832 0.299072 61.3422 0.299072 73.0967V200.978C0.299072 212.732 9.85769 222.291 21.6186 222.291H89.8398V247.866H64.2576V256.392H192.175V247.866H166.589V222.291H234.814C246.572 222.291 256.133 212.732 256.133 200.978V73.0967C256.133 61.3422 246.572 51.7832 234.814 51.7832Z" fill="black"/>
<path d="M125.616 206.473C125.616 208.57 127.331 210.302 129.447 210.302C131.547 210.302 133.278 208.57 133.278 206.473C133.278 204.357 131.547 202.643 129.447 202.643C127.331 202.643 125.616 204.357 125.616 206.473Z" fill="black"/>
</svg>
