<svg width="215" height="112" viewBox="0 0 215 112" fill="none" xmlns="http://www.w3.org/2000/svg">
<path d="M145.25 0.128052L144.579 4.29872C143.539 12.2027 143.916 14.464 146.764 17.3974L149.515 20.1067L146.666 35.2321C144.964 44.2561 142.876 51.8187 141.551 54.304C140.413 56.448 139.087 59.6054 138.8 61.3014C138.326 63.328 136.713 65.3654 134.25 67.1681C132.073 68.6401 127.8 72.5867 124.772 75.7547C122.353 78.3467 120.687 79.9361 119.782 80.6187L116.826 83.4027C115.876 85.2161 115.339 86.6774 115.132 87.7867C114.926 88.928 115.043 89.6854 115.347 90.2401C115.643 90.7734 116.154 91.1467 116.852 91.3814C117.68 91.6122 118.531 91.6949 119.379 91.6267C121.296 91.4707 123.195 91.0702 125.04 90.4321C125.667 90.2294 126.16 90.0374 126.59 89.8667C127.253 88.8961 128.785 87.0614 131.499 83.8721C138.702 75.4134 141.452 70.7841 138.612 72.0321C137.564 72.4801 138.039 71.3494 139.84 69.0881C143.638 64.6827 145.815 58.0267 150.366 37.1521C153.967 20.6721 153.967 20.4374 156.619 20.4374C157.864 20.4374 161.384 20.6934 161.384 20.6934V0.128052H153.304H145.25ZM179.641 33.8881C179.068 33.8881 178.119 34.912 177.554 36.0427C176.515 38.0694 177.742 39.3067 193.384 50.9334C202.673 57.9414 210.162 63.9147 209.974 64.3734C209.786 64.704 202.199 70.5814 193.106 77.3547C176.605 89.536 176.515 89.6534 178.029 92.1387C179.928 95.0721 178.029 96.0854 199.448 80.1707L215 68.3201V59.4027L197.648 46.6454C188.268 39.6481 180.116 34.0054 179.641 33.8881ZM35.5467 35.136C35.0719 35.136 26.9198 40.8961 17.5404 47.7761L0 60.5334V69.4507L17.4419 82.4321C27.1169 89.536 35.269 95.4134 35.6452 95.4134C36.0215 95.4134 36.7829 94.3894 37.5444 93.1521C38.6821 91.008 37.7235 90.1014 21.706 78.0267C6.45 66.624 4.8375 65.0454 6.36042 63.8081C7.31 63.0187 14.5125 57.7067 22.2883 51.9574C40.0169 38.9761 39.0673 39.8721 37.6429 37.1627C37.0785 36.0427 36.12 35.0294 35.5556 35.136H35.5467ZM113.341 35.3814C110.725 35.3601 105.099 40.1067 88.2575 56.4801C87.5319 58.5387 87.4692 59.9574 87.8006 60.8747C88.0156 61.5041 88.4098 61.9414 88.9563 62.2614C89.4938 62.5814 90.1925 62.7734 90.9629 62.8481C92.4948 63.0081 94.3044 62.72 95.7646 62.3787L96.75 62.1121C97.0873 61.5735 97.5302 61.1413 98.04 60.8534C99.0792 60.1707 103.442 55.4347 107.805 50.3574C115.482 41.0987 117.282 36.9174 114.156 35.5627C113.9 35.4412 113.626 35.3796 113.35 35.3814H113.341ZM133.013 41.8134C130.711 41.8881 126.563 45.0667 119.459 51.8187C115.894 55.264 113.636 57.12 112.427 57.5041L107.733 61.9201C105.968 65.7601 105.708 68.1387 106.174 69.4507C106.291 69.7744 106.46 70.0673 106.672 70.3126C106.884 70.558 107.135 70.7508 107.41 70.8801C108.095 71.2019 108.825 71.3648 109.56 71.36C111.319 71.3377 113.066 71.0328 114.756 70.4534C115.637 70.172 116.507 69.8446 117.363 69.472L117.623 69.3441L118.098 69.0454C118.994 67.6694 121.054 65.0774 123.634 62.0907C131.786 52.7254 135.952 46.0694 135.101 43.5841C134.715 42.3787 134.052 41.7707 133.013 41.8134ZM111.298 53.3334C110.635 53.4187 109.148 54.784 106.47 57.5787C102.6 61.6534 98.3804 64.0001 96.9202 62.9547C96.5809 63.046 96.2404 63.1313 95.899 63.2107C94.4119 63.5627 92.5575 63.8507 90.9002 63.6907C90.1193 63.6344 89.354 63.4066 88.6427 63.0187C87.9718 62.6535 87.4365 62.0085 87.1377 61.2054C86.8063 60.2454 86.8063 59.0507 87.1825 57.5254L81.3596 63.2214L68.1819 76.2027V97.248L111.361 56.7467C111.353 56.3033 111.401 55.8609 111.504 55.4347C111.836 54.0054 111.818 53.2801 111.298 53.3441V53.3334ZM129.878 60.1494C129.224 60.1494 128.131 61.2481 126.384 63.4561C124.01 66.4747 120.275 69.3974 118.295 69.9947L117.99 70.1867C117.665 70.3465 117.337 70.4959 117.005 70.6347C116.467 70.8481 115.769 71.104 114.962 71.36C113.35 71.8827 111.343 72.3627 109.551 72.3094C108.707 72.3081 107.87 72.1125 107.088 71.7334C106.351 71.3715 105.76 70.6833 105.44 69.8134C104.92 68.3307 105.126 66.2507 106.264 63.2961L68.1729 99.0187V111.872H84.9071L120.4 78.6774C121.323 77.4614 122.711 75.7974 124.584 73.7174C129.6 68.1814 130.738 66.272 130.738 63.4454C130.738 61.2481 130.532 60.1387 129.878 60.1387V60.1494ZM138.326 80.9494L135.289 84.5547C133.587 86.4747 130.55 88.8427 128.471 89.856L128.059 90.0694L128.033 90.1227L127.943 90.2294C127.862 90.304 127.826 90.3147 127.764 90.3467C126.934 90.7206 126.091 91.0516 125.237 91.3387C123.339 91.9966 121.387 92.4079 119.415 92.5654C118.482 92.6366 117.546 92.5395 116.637 92.2774C115.849 92.0708 115.153 91.5235 114.685 90.7414C114.255 89.9521 114.129 88.896 114.371 87.5947C114.563 86.6682 114.849 85.7729 115.222 84.9281L86.5823 111.872H124.673L129.224 105.664C135.477 96.9814 138.326 90.7734 138.326 85.4614V80.9494Z" fill="#4F4F4F"/>
</svg>
