<svg width="215" height="256" viewBox="0 0 215 256" fill="none" xmlns="http://www.w3.org/2000/svg">
<path d="M145.25 72.1281L144.579 76.2987C143.539 84.2027 143.916 86.464 146.764 89.3974L149.515 92.1067L146.666 107.232C144.964 116.256 142.876 123.819 141.551 126.304C140.413 128.448 139.087 131.605 138.8 133.301C138.326 135.328 136.713 137.365 134.25 139.168C132.073 140.64 127.8 144.587 124.772 147.755C122.353 150.347 120.687 151.936 119.782 152.619L116.826 155.403C115.876 157.216 115.339 158.677 115.132 159.787C114.926 160.928 115.043 161.685 115.347 162.24C115.643 162.773 116.154 163.147 116.852 163.381C117.68 163.612 118.531 163.695 119.379 163.627C121.296 163.471 123.195 163.07 125.04 162.432C125.667 162.229 126.16 162.037 126.59 161.867C127.253 160.896 128.785 159.061 131.499 155.872C138.702 147.413 141.452 142.784 138.612 144.032C137.564 144.48 138.039 143.349 139.84 141.088C143.638 136.683 145.815 130.027 150.366 109.152C153.967 92.6721 153.967 92.4374 156.619 92.4374C157.864 92.4374 161.384 92.6934 161.384 92.6934V72.1281H153.304H145.25ZM179.641 105.888C179.068 105.888 178.119 106.912 177.554 108.043C176.515 110.069 177.742 111.307 193.384 122.933C202.673 129.941 210.162 135.915 209.974 136.373C209.786 136.704 202.199 142.581 193.106 149.355C176.605 161.536 176.515 161.653 178.029 164.139C179.928 167.072 178.029 168.085 199.448 152.171L215 140.32V131.403L197.648 118.645C188.268 111.648 180.116 106.005 179.641 105.888ZM35.5467 107.136C35.0719 107.136 26.9198 112.896 17.5404 119.776L0 132.533V141.451L17.4419 154.432C27.1169 161.536 35.269 167.413 35.6452 167.413C36.0215 167.413 36.7829 166.389 37.5444 165.152C38.6821 163.008 37.7235 162.101 21.706 150.027C6.45 138.624 4.8375 137.045 6.36042 135.808C7.31 135.019 14.5125 129.707 22.2883 123.957C40.0169 110.976 39.0673 111.872 37.6429 109.163C37.0785 108.043 36.12 107.029 35.5556 107.136H35.5467ZM113.341 107.381C110.725 107.36 105.099 112.107 88.2575 128.48C87.5319 130.539 87.4692 131.957 87.8006 132.875C88.0156 133.504 88.4098 133.941 88.9563 134.261C89.4938 134.581 90.1925 134.773 90.9629 134.848C92.4948 135.008 94.3044 134.72 95.7646 134.379L96.75 134.112C97.0873 133.573 97.5302 133.141 98.04 132.853C99.0792 132.171 103.442 127.435 107.805 122.357C115.482 113.099 117.282 108.917 114.156 107.563C113.9 107.441 113.626 107.38 113.35 107.381H113.341ZM133.013 113.813C130.711 113.888 126.563 117.067 119.459 123.819C115.894 127.264 113.636 129.12 112.427 129.504L107.733 133.92C105.968 137.76 105.708 140.139 106.174 141.451C106.291 141.774 106.46 142.067 106.672 142.313C106.884 142.558 107.135 142.751 107.41 142.88C108.095 143.202 108.825 143.365 109.56 143.36C111.319 143.338 113.066 143.033 114.756 142.453C115.637 142.172 116.507 141.845 117.363 141.472L117.623 141.344L118.098 141.045C118.994 139.669 121.054 137.077 123.634 134.091C131.786 124.725 135.952 118.069 135.101 115.584C134.715 114.379 134.052 113.771 133.013 113.813ZM111.298 125.333C110.635 125.419 109.148 126.784 106.47 129.579C102.6 133.653 98.3804 136 96.9202 134.955C96.5809 135.046 96.2404 135.131 95.899 135.211C94.4119 135.563 92.5575 135.851 90.9002 135.691C90.1193 135.634 89.354 135.407 88.6427 135.019C87.9718 134.654 87.4365 134.008 87.1377 133.205C86.8063 132.245 86.8063 131.051 87.1825 129.525L81.3596 135.221L68.1819 148.203V169.248L111.361 128.747C111.353 128.303 111.401 127.861 111.504 127.435C111.836 126.005 111.818 125.28 111.298 125.344V125.333ZM129.878 132.149C129.224 132.149 128.131 133.248 126.384 135.456C124.01 138.475 120.275 141.397 118.295 141.995L117.99 142.187C117.665 142.347 117.337 142.496 117.005 142.635C116.467 142.848 115.769 143.104 114.962 143.36C113.35 143.883 111.343 144.363 109.551 144.309C108.707 144.308 107.87 144.113 107.088 143.733C106.351 143.371 105.76 142.683 105.44 141.813C104.92 140.331 105.126 138.251 106.264 135.296L68.1729 171.019V183.872H84.9071L120.4 150.677C121.323 149.461 122.711 147.797 124.584 145.717C129.6 140.181 130.738 138.272 130.738 135.445C130.738 133.248 130.532 132.139 129.878 132.139V132.149ZM138.326 152.949L135.289 156.555C133.587 158.475 130.55 160.843 128.471 161.856L128.059 162.069L128.033 162.123L127.943 162.229C127.862 162.304 127.826 162.315 127.764 162.347C126.934 162.721 126.091 163.052 125.237 163.339C123.339 163.997 121.387 164.408 119.415 164.565C118.482 164.637 117.546 164.539 116.637 164.277C115.849 164.071 115.153 163.524 114.685 162.741C114.255 161.952 114.129 160.896 114.371 159.595C114.563 158.668 114.849 157.773 115.222 156.928L86.5823 183.872H124.673L129.224 177.664C135.477 168.981 138.326 162.773 138.326 157.461V152.949Z" fill="#4F4F4F"/>
</svg>
