<svg width="130" height="130" viewBox="0 0 130 130" fill="none" xmlns="http://www.w3.org/2000/svg">
<path d="M117 10.4H12.9999C11.5621 10.4 10.3999 11.5648 10.3999 13V117C10.3999 118.435 11.5621 119.6 12.9999 119.6H117C118.438 119.6 119.6 118.435 119.6 117V13C119.6 11.5648 118.438 10.4 117 10.4ZM75.3999 68.757H62.3999V109.2H51.9999V68.757H38.9999V59.8H75.3999V68.757ZM78.3145 106.891V96.0804C78.3145 96.0804 84.2191 100.532 91.3041 100.532C98.3891 100.532 98.1161 95.8984 98.1161 95.264C98.1161 88.5404 78.0415 88.5404 78.0415 73.645C78.0415 53.3884 107.291 61.3808 107.291 61.3808L106.927 71.0112C106.927 71.0112 102.021 67.7404 96.4807 67.7404C90.9401 67.7404 88.9407 70.3742 88.9407 73.19C88.9407 80.457 109.197 79.7316 109.197 94.3566C109.2 116.883 78.3145 106.891 78.3145 106.891Z" fill="#4F4F4F"/>
</svg>
