<svg width="110" height="110" viewBox="0 0 110 110" fill="none" xmlns="http://www.w3.org/2000/svg">
<path d="M107 0.400024H2.9999C1.5621 0.400024 0.399902 1.56482 0.399902 3.00002V107C0.399902 108.435 1.5621 109.6 2.9999 109.6H107C108.438 109.6 109.6 108.435 109.6 107V3.00002C109.6 1.56482 108.438 0.400024 107 0.400024ZM65.3999 58.757H52.3999V99.2H41.9999V58.757H28.9999V49.8H65.3999V58.757ZM68.3145 96.8912V86.0804C68.3145 86.0804 74.2191 90.5316 81.3041 90.5316C88.3891 90.5316 88.1161 85.8984 88.1161 85.264C88.1161 78.5404 68.0415 78.5404 68.0415 63.645C68.0415 43.3884 97.2915 51.3808 97.2915 51.3808L96.9275 61.0112C96.9275 61.0112 92.0213 57.7404 86.4807 57.7404C80.9401 57.7404 78.9407 60.3742 78.9407 63.19C78.9407 70.457 99.1973 69.7316 99.1973 84.3566C99.1999 106.883 68.3145 96.8912 68.3145 96.8912Z" fill="#4F4F4F"/>
</svg>
